<?xml version="1.0" encoding="UTF-8"?>
<svg id="Layer_2" data-name="Layer 2" xmlns="http://www.w3.org/2000/svg" viewBox="0 0 354.71 327.38">
  <defs>
    <style>
      .cls-1 {
        fill: #f4eae1;
      }

      .cls-2 {
        fill: #fff;
      }
    </style>
  </defs>
  <g id="monsters">
    <g>
      <path class="cls-1" d="M104.89,327.24c40.02-2.11,172.02-26.86,196.55-34.75,49.84-16.03,56.73-36.3,52.04-83.19-1.69-16.98-19.69-139.57-33.67-171.05C304.06,2.81,277.56-1.91,240.99.55c-17.78,1.19-136.67,15.18-173.01,24.98C4.39,42.69-2.89,84.45.78,132.1c1.96,25.39,5.98,56.59,10.25,82.1,8.19,49.01,24.76,116.7,93.86,113.03Z"/>
      <g>
        <path class="cls-2" d="M43.69,140.99c-.1-.54-.39-2.17-.42-2.34-1.21-9.85-2.08-19.94-2.58-30.1.05-.75.11-3.56.05-3.93.23-.78,1.55-9.03,2-11.72-.03-.18.26-.6.23-.78,6.48-15.88,18.85-27.97,38.93-26.15.18-.03.4.11.57.08,2.47.31,5.17.75,7.59,1.81,6.38,3.33,10.64,9.46,14.51,15.49,7.38,12.09,8.5,27.74,11.28,41.21.34.86,1.58,6.8,1.68,7.33.13.73,1.65,9.21,2.19,12.28.55,3.08,1.94,10.84,2.04,11.38.48,2.71,2.3,15.98,2.63,18.9.56,4.19-2.77,8.51-6.92,9.25-1.08.2,2.99-.9-10.35.55,0,0-1.71-.25-2.31-.52-3.34-.9-3.79-1.38-5.24-4.28-.22-1.26-1.56-6.61-1.94-7.66-.09-.55-.66-2.69-.76-3.22-.27-.52-.81-.43-1-.39-.17.03-.69.3-.87.34-.54.09-14.98,2.68-15.49,2.96-.54.09-.23.78-.2.96.03.19.16.91.16.91.6,2.32,2.25,9.48,2.53,9.98.06.36,1.42,2.73,1.45,2.92.03.18.16.9.19,1.07.2,1.09.07,1.48-.94,2.04-3.08.54-9.89,3.07-13.14,3.65-.36.06-4.87.88-6.5,1.17-.9.16-5.41.97-6.31,1.12-1.73-.25-2.18-1.66-2.6-3.08-2.93-17.36-7.4-34.07-10.47-51.23ZM76.08,144.9s5.29-.57,5.47-.6c.37-.07,7.95-1.42,8.12-1.45-.04-1.3-.88-8.05-1.14-9.48,0,0-.13-.73-.16-.91-.58-3.24-2.01-7.08-2.59-10.34-1.15-5.39-1.72-10.69-3.77-15.92-2.61-11.46-6.39-14.88-9.15-13.65-2.77,1.24-4.72,7-4.05,14.88-.1,1.52-.14,5.43-.08,5.8.13,3.89.66,7.89,1.37,11.87,1.17,6.5,2.42,13.54,4.64,19.67.42.3.78.23,1.33.13Z"/>
        <path class="cls-2" d="M179.19,152.3c-2.04,6.4-7.37,16.9-14.33,19.14-.17.04-5.3,1.29-6.93,1.58,0,0-1.3.23-1.62.28-12.98,2.32-19.66-12.56-23.69-22.89-8.87-23.38-15.72-51.46-18.81-79.05l-.03-.16c-.09-.49.31-1.06.77-1.31,3.84-1.02,17.01-4.21,20.9-4.91.16-.03,1.62-.29,2.1-.38.33-.06,1.79-.32,2.28-.41,2.8,13.73,7.68,70.15,16.86,70.86l.37.27c5.93,1.28,9.71-9.45,5.78-29.51-.31-1.79-1.2-10.5-1.53-12.29l.43-.41,21.16-3.45c.49-.09,1.09.48.99.83,2.54,13.28,5.86,37.48,15.8,41.56,0,0,.16-.03.32-.06,7.78-2.4-.2-47.03-3.22-71.44-.65-4.57,1.17-6.57,5.05-8.28,2.83-1,11.77-1.59,14.53-2.08.81-.15,1.49-.1,2.15-.21,2.35.07,5.08,1.26,5.57,4.02,11.9,66.54,3.04,92.92-7.4,104.84-3.21,3.58-7.55,5.53-11.77,6.28-4.7.84-8.94.59-13.33-1.47-4.93-2.3-7.94-6.96-11.37-11.2-.22-.3-.38-.27-.71-.21l-.32.06Z"/>
        <path class="cls-2" d="M242.59,96.4c-2.4-12.47-5.28-24.85-7.52-37.35-.93-5.19-2.32-14.83,5.11-17.33l38.22-5.49c3.14-.23,4.63,4.36,5.39,6.75.39,1.27,1.6,5.23,1.63,5.4.03.16.71,3.05.89,4.03.12.65.44,3.44.56,4.08-.28,4.07-3.37,5.47-7.11,6.14-1.92.51-11.27,2.51-13.21,2.86-.17.03-.77.47-.92.5-.16.03-.43.42-.43.42l3.05,17.05.8.69,16.37-2.08c1.79-.32,5.02-.06,5.42,2.2l2.49,13.96c.29,1.62-.57,4.29-2.32,4.77-6.04.92-12.02,2.15-17.96,3.55-.43.41-.47,1.09-.36,1.74.03.16.14.81.14.81.35,1.95,2.36,11.3,2.87,13.22l.03.16.03.17.04.17c.27.61.52,1.07,1.34.93,6.17-1.1,11.72-3.77,17.71-4.84.82-.15,2.89-.69,3.8-.35,3.37,1.08,6.39,11.42,7,14.83.17.97.35,1.95.37,2.95,2.98,12.03-31.61,11.51-49.06,16.97-.8.15-2.06-.3-2.42-1.41,0,0-.32-1.79-.35-1.95-.43-1.43-3.24-12.49-3.47-13.79-1.65-6.41-1.84-13.07-4.26-19.17-.53-2.92-3.29-17.5-3.84-20.58Z"/>
        <path class="cls-2" d="M66.46,273.08c-.05-.27.35-2.7.45-3.68.29-1.45,2.32-2.5,3.28-3.37.27-.05.52-.23.78-.28,2.89-.93,6.58-1.18,9.54-1.7.41-.07.89-.44,1.1-.07,4,17.73,10.9,9.84,10.8,9.3-1.81-13.25-13.23-13.56-20.47-19.2-3.21-2.48-7.05-6.08-8.57-9.98-.18-.24-.51-1.29-.55-1.55-.71-2.38-1.87-5.07-2.33-7.62-.53-2.95.19-6.68.76-9.7.08-.29.01-.7.1-.98,1.92-12.54,14.65-18.83,25.79-20.82.54-.09,2.44-.3,2.98-.41,13.17-.68,17.77,15.68,19.49,25.34.12.68.72,4.03.82,4.57-.04.56-.3,1.43-.76,1.94-.41.06-1.61.28-1.89.33-.4.06-1.74.31-1.87.33-2.44.3-10.89,1.11-13.22,1.25-1.31.38-1.68-.11-1.87-1.19-.24-1.34-.1-2.9-.36-4.36-.2-1.07-.53-4.48-2.28-4.17-1.88.33-5.08,4.09-4.77,5.84l.86,4.82c.36,2.02,3.39,4.24,4.79,5.11,13.52,8.94,27.77,11.94,26.87,37.17-.28,10.03-7.23,13.77-16.52,17.63-.67.12-3.35.6-4.03.73-6.31,1.12-10.55.64-16.02-2.82-3.39-1.88-6.11-4.72-7.7-8.18-.02-.14-.24-1.34-.26-1.48-.42-1.58-1.64-2.21-2.18-3.62-.77-2.78-2.26-5.7-2.76-8.51-.05-.27.01-.7.01-.7Z"/>
        <path class="cls-2" d="M128.5,192.2c22.56-7.07,29.92.75,37.56,21,.46,1.02,1.72,4.97,1.79,5.37.05.26.78,3.6,1.02,4.94,2.55,14.23,4.66,26.05.96,40.29-.49,1.89-.69,3.87-1.58,5.82-.11.16-1.09,1.72-1.46,1.93-4.42,5.5-9.77,8.12-16.75,9.37-12.23,2.18-19-3.95-24.35-14.49-.25-.66-2.66-5.62-3.34-7.03-.2-.38-.5-1.29-.55-1.55l-4.99-17.82s-.19-1.07-.29-1.6c-2.4-13.44-4.56-41.03,11.97-46.21ZM148.77,257.58c6.54-1.45,2.55-19.85,1.29-26.15-.09-.53-.19-1.07-.24-1.34-.67-3.75-3.62-19.44-9.78-18.33-4.45.79-2.62,18.75-2.1,21.57,3.33,22.53,5.89,25.27,10.84,24.25Z"/>
        <path class="cls-2" d="M183.7,266.1l-1.2-16-6.14-46c-1.26-6.29-2.2-13.88-3.03-20.1-.05-.27.25-.89.6-1.22,3.75-3.85,8.85-4.76,13.82-5.66.27-.04.54-.09.94-.17,3.22-.57,5.09-.22,7.45,2.14,4.82,6.06,10.31,13.53,14.59,20.38l.32.23.13-.03.14-.02.22-.32c.2-.45.66-1.77.63-1.91l2.57-18.2c.21-5.85,6.05-8,11.02-8.9l.13-.02c4.61-.55,11.36-1.62,16.46-1.7,2.7.35,5.97,7.8,6.69,10.3l19.41,73.7-.09.3c-.24.19-1.43.53-1.7.58-2.51.72-14.24,3.24-16.8,3.69-.14.03-1.31.38-1.86.47-.4.07-1.77.19-2.03.23-1.02-.24-1.55-3.19-1.87-4.24l-12.58-50.26-3.17,30.35c-1.41,6.07-5.09,7.15-8.8,6.56-3.57-.6-4-.67-20.32-31.56-.03-.14-.32-.22-.46-.19l-.21.31c.15.8,4.15,20.88,4.43,22.48.53,2.96,2.27,11.93,2.41,12.73.29,1.62,3.26,13.55,3.65,15.01.03.14.17.94.24,1.34.94,5.24-8.32,6.89-11.82,7.51-.4.07-2.01.36-2.01.36-.43-.06-4.71.01-5.94.09,0,0-.14.02-.27.04q-.13.03-.26.05c-1.53-.01-4.87-.09-5.26-2.24l-.03-.15Z"/>
        <path class="cls-2" d="M271.24,217.77c-1.98-10.3-4.37-20.55-6.21-30.89-.77-4.3-1.92-12.27,4.22-14.33l31.62-4.54c2.59-.19,3.83,3.62,4.45,5.57.33,1.05,1.33,4.33,1.35,4.47.03.14.6,2.53.74,3.33.1.54.37,2.84.47,3.39-.23,3.36-2.8,4.51-5.88,5.06-1.59.43-9.32,2.08-10.93,2.38-.14.02-.62.39-.76.41-.14.03-.35.34-.35.34l2.52,14.09.66.58,13.54-1.73c1.48-.26,4.16-.05,4.49,1.83l2.06,11.54c.24,1.34-.47,3.55-1.92,3.95-4.99.75-9.94,1.77-14.85,2.93-.36.34-.4.91-.31,1.44.03.13.12.68.12.68.29,1.61,1.95,9.35,2.38,10.94l.03.14.02.13.03.14c.23.51.43.89,1.1.77,5.1-.92,9.7-3.11,14.66-4.01.67-.12,2.39-.56,3.14-.28,2.79.88,5.29,9.45,5.79,12.27.15.8.29,1.6.3,2.44,2.47,9.95-26.15,9.52-40.58,14.04-.67.11-1.71-.26-2.01-1.17,0,0-.27-1.48-.29-1.61-.35-1.18-2.68-10.32-2.87-11.41-1.37-5.29-1.52-10.8-3.53-15.85-.43-2.41-2.73-14.48-3.18-17.03Z"/>
      </g>
    </g>
  </g>
</svg>