<?xml version="1.0" encoding="UTF-8"?>
<svg id="Layer_2" data-name="Layer 2" xmlns="http://www.w3.org/2000/svg" viewBox="0 0 358.34 349.88">
  <defs>
    <style>
      .cls-1 {
        fill: #f4eae1;
      }

      .cls-2 {
        fill: #fff;
      }
    </style>
  </defs>
  <g id="monsters">
    <g>
      <path class="cls-1" d="M343.98,204.28C297.5,136.7,182.59,34.71,175.86,29.44,125.97-19.5,94.04,3.52,71.67,20.74,48.1,38.89,19.54,71.38,6.52,99.49c-21.19,45.73,14.07,62.67,37.38,84.07,16.45,15.11,109.69,94.54,138,121.58,45.61,43.55,65.2,55.92,97.32,34.45,9.92-6.62,50.72-47.44,57.05-57.02,18.46-27.96,34.86-38.82,7.71-78.28Z"/>
      <g>
        <path class="cls-2" d="M50.35,93.19c2.14-2.28,7.94-8.44,8.19-8.71,5.41-6.02,30.42-34.52,35.44-40.65.38-.4,2.01-2.15,2.38-2.54.51-.54,2.15-2.28,2.27-2.41,1.78-1.61,9.47-9.53,11.23-11.15,6.32-2.15,18.12,9.2,21.47,12.35,5.09,4.78,9.29,10.25,13.24,15.98,9.53,13.75,9.32,23.64-2.27,35.98-9.19,9.78-21.44,9.38-33.38,5.97-.26,0-.52.01-.65-.11l-.13.14c-.38.4,4.93,12.2,5.01,15.06.79,8.56-2.39,15.17-8.18,21.33-.76.8-2.4,2.55-2.52,2.67-1.14,1.21-4.93,4.45-5.45,4.73l-10.64,5.14c-.26.01-6.73,1.25-9.32,1.59-9.06,1.33-22.43-5.94-29.21-10.54-2.39-1.75-13.19-10.14-15.33-11.89-.14-.12-1.61-1.51-2.28-2.14-3.89-3.65-5.06-3.74-1.42-7.89.51-.54,4.65-5.48,5.15-6.02,0,0,.76-.8,1.01-1.07,5.16-5.49,10.22-10.33,15.38-15.83ZM105.35,75.22c6.21,7.35,24.6-3.62,13.85-14.74-.13-.13-.52.01-.52.01l-13.1,13.94-.23.79ZM64.1,121.52c12.31,10.81,36.86-11.55,22.15-24.37-.13-.12-.4-.11-.4-.11l-.52.02c-3.3,2.97-4.81,4.57-7.7,7.66-4.03,4.28-9.53,11.49-13.82,15.78-.26.27.16.91.28,1.03Z"/>
        <path class="cls-2" d="M177.04,94.92c19.61,14.21,17.68,25.05,5.7,43.71-.56,1-3.03,4.44-3.31,4.75-.19.2-2.48,2.85-3.44,3.86-10.14,10.79-18.56,19.75-32.53,25.42-1.86.75-3.6,1.79-5.76,2.25-.2,0-2.08.16-2.48-.02-7.22-.27-12.65-3.06-17.94-8.04-9.27-8.71-8.37-18.03-2.97-28.87.37-.61,2.99-5.63,3.73-7.04.19-.4.76-1.21.95-1.41l11.6-14.99s.77-.81,1.14-1.22c9.57-10.18,30.94-28.84,45.3-18.41ZM135.69,151.56c5.18,4.48,17.88-10.04,22.27-14.92.39-.41.77-.82.96-1.02,2.68-2.85,13.77-14.86,9.09-19.26-3.36-3.16-17.02,9.33-19.02,11.46-16.49,16.52-17.17,20.3-13.3,23.74Z"/>
        <path class="cls-2" d="M209.41,147.88c19.62,14.21,17.68,25.06,5.71,43.71-.56,1-3.02,4.44-3.31,4.76-.19.2-2.48,2.84-3.43,3.86-10.15,10.79-18.57,19.75-32.53,25.42-1.85.75-3.6,1.8-5.75,2.26-.21,0-2.08.16-2.48-.02-7.22-.27-12.65-3.07-17.95-8.05-9.27-8.71-8.37-18.03-2.97-28.87.38-.61,2.99-5.63,3.74-7.04.18-.41.75-1.21.95-1.41l11.59-15s.76-.81,1.15-1.22c9.57-10.19,30.94-28.84,45.3-18.41ZM168.07,204.52c5.18,4.49,17.88-10.04,22.28-14.92.38-.41.76-.81.96-1.02,2.68-2.85,13.77-14.86,9.09-19.26-3.36-3.16-17.02,9.33-19.02,11.46-16.49,16.52-17.16,20.3-13.3,23.74Z"/>
        <path class="cls-2" d="M185.35,232.4l12.42-10.77,34.06-33.18c4.4-4.89,10.06-10.29,14.67-14.78.19-.2.88-.33,1.37-.24,5.46.72,9.33,4.35,13.1,7.9.2.2.41.39.71.67,2.45,2.3,3.29,4.05,2.8,7.43-2.04,7.67-4.82,16.75-7.84,24.46v.39s.01,0,.11.1l.1.1.4-.02c.49-.12,1.86-.55,1.96-.66l16.52-9.01c4.94-3.4,10.29.08,14.05,3.62l.1.1c3.27,3.46,8.27,8.35,11.46,12.49,1.36,2.43-2.76,9.68-4.38,11.8l-48.72,61.02-.29.11c-.3-.09-1.31-.84-1.51-1.04-2.13-1.61-11.38-9.72-13.31-11.54-.1-.1-1.11-.86-1.52-1.24-.31-.28-1.23-1.35-1.43-1.53-.42-.98,1.69-3.22,2.34-4.12l33.63-41.08-26.89,15.96c-5.85,2.55-8.99.18-10.77-3.22-1.69-3.31-1.9-3.7,13.52-36.01.09-.1-.02-.4-.12-.49l-.39.02c-.58.61-14.63,16.16-15.77,17.39-2.11,2.24-8.41,9.16-8.99,9.77-1.15,1.22-9.16,10.96-10.1,12.18-.09.1-.67.71-.96,1.02-3.73,3.97-10.76-2.64-13.4-5.12-.31-.29-1.53-1.44-1.53-1.44-.21-.39-2.88-3.86-3.71-4.83,0,0-.1-.1-.2-.2q-.1-.09-.2-.19c-.93-1.25-2.9-4.06-1.36-5.69l.09-.09Z"/>
        <path class="cls-2" d="M268.3,299.04c.2,0,1.83,1.53,2.34,2,.41.38,1.93,1.82,2.14,2.21,1.16,2.04.91,3.73-.62,5.35-.29.31-.86.92-.86.92-.1.1-1.66.74-2.35.87-.49.11-2.93.89-3.33.89-2.07.36-7.21-2.74-8.33-3.79-1.12-1.05-3.42-5.14-2.77-6.64,3.31-7.81,7.52-6.17,13.78-1.81ZM316.16,235.87c2.31-2.05,12.49,7.71,13.72,9.07.82.77.46,2.16-.11,2.77-.09.1-.29.31-.29.31-17.18,16.64-33.03,34.53-50.2,51.38-.4,0-2.27.17-2.57.07-1.38.04-3.53-2.16-10.5-6.99,0,0-.41-.58-.42-.78,0,0-.01-.39.09-.49l1.33-1.62c.1-.1,8.6-9.56,12.13-13.52,11.47-12.61,22.84-25.33,34.42-37.64.48-.51,2.11-2.24,2.4-2.55Z"/>
      </g>
    </g>
  </g>
</svg>