<?xml version="1.0" encoding="UTF-8"?>
<svg id="Layer_2" xmlns="http://www.w3.org/2000/svg" version="1.1" viewBox="0 0 689.95 353.54">
  <defs>
    <style>
      .st0 {
        fill: #383735;
      }
    </style>
  </defs>
  <g id="monsters">
    <path class="st0" d="M686.36,46.58C649.62,3.24,594.81-7.95,540.92,5.16c-12.47,3.02-8.87,4.96-3.26,10.91,18.45,19.52,22.35,44.8,10.01,69.71-4.3,8.67-10.59,17.74-17.93,26.16-9.6-10.02-20.93-18.91-34-26.4-65.54-37.55-222.19-40.13-302.41-1.37-13.06,6.31-25.21,14.41-35.53,24.92-6.29-7.6-11.7-15.61-15.52-23.31-12.34-24.92-8.44-50.19,10.01-69.71,5.61-5.94,9.21-7.89-3.26-10.91C95.13-7.95,40.33,3.24,3.59,46.58c-9.12,10.81,1.39,9.07,6.7,8.45,21.22-2.44,42.41-5.24,63.61-2.48-16.14,9.98-29.51,21.49-39.94,37.64-10.41,16.15,3.18,8.64,7.9,6.47,17.57-8.07,37.39-10.51,56.37-6.8-12.12,10.48-21.31,22.98-29.01,37.16-4.58,8.46.4,10.72,7.67,3.45,10.36-10.34,24.2-19.39,39.22-18.05,12.89,1.15,19.8,7.86,27.27,15.12-10.57,17.33-17.11,39.44-17.28,68.08-.18,31.15,4.67,56.8,14.41,77.69-10.09,7.16-17.93,18.52-17.59,31.19.15,5.43,7.77,7.95,10.52,2.85,4.09-7.57,9.71-13.31,16.2-17.98,3.35,4.95,7.02,9.6,11.07,13.9-.23.3-.46.57-.69.88-8.94,12.14-12.24,28.22-10.45,43.03.76,6.29,8.89,7.8,11.13,1.51,4-11.23,7.87-22.14,14.25-32.31.06-.09.14-.18.2-.28,30.48,22.95,74.91,33.73,132.7,35.85,54.14,1.99,119.9,1.9,171.59-18.02,8.8-3.39,16.98-6.93,24.52-10.91.69,7.9.22,15.91-1.68,23.27-1.69,6.55,7.09,10,10.66,4.49,7.8-12,9.8-25.36,7.76-38.29,8.08-6.13,15.04-13.35,20.75-22.25,3.79,5.82,6.12,12.57,7.73,20.41,1.15,5.54,9.38,5.14,10.77,0,3.87-14.3-1.11-26.96-9.98-37.34,6.93-17.91,10.4-41.16,9.82-72.37-.47-25.67-5.76-50.93-16.4-70.43,8.81-8.32,15.74-16.79,30.4-18.09,15.02-1.34,28.87,7.7,39.22,18.05,7.27,7.27,12.26,5,7.67-3.45-7.7-14.17-16.88-26.67-29-37.16,18.98-3.71,38.8-1.27,56.37,6.8,4.72,2.16,18.31,9.67,7.9-6.47-10.43-16.15-23.8-27.66-39.94-37.64,21.2-2.76,42.4.04,63.62,2.48,5.31.61,15.83,2.35,6.7-8.45ZM230.85,216.49c-18.92,0-34.71-15.79-34.71-34.71s15.79-34.71,34.71-34.71,34.71,15.79,34.71,34.71-15.79,34.71-34.71,34.71ZM492.02,191.56c-3.5,12.71-11.91,23.39-23.17,30.12-.07.05-.15.09-.23.14-19.5,11.68-45.39,8.04-61.35-7.92-12.76-12.77-17.81-31.83-13.02-49.25,4.68-17.01,18.35-30.67,35.36-35.35,16.99-4.68,37-.03,49.25,13.02.06.07.12.13.18.2,12.42,13.21,17.85,31.27,12.96,49.04Z"/>
  </g>
</svg>