<?xml version="1.0" encoding="UTF-8"?>
<svg id="Layer_2" xmlns="http://www.w3.org/2000/svg" version="1.1" viewBox="0 0 587.43 684.52">
  <defs>
    <style>
      .st0 {
        fill: #383735;
      }
    </style>
  </defs>
  <g id="monsters">
    <g>
      <path class="st0" d="M155.79,407.76c7.2-5.42,13.05-12.3,20.37-17.52-5.85-2.61-11.5-5.54-16.9-8.85-.71-.43-1.44-.89-2.19-1.37-2.28,4.59-3.99,9.55-4.82,14.6-.32,1.97-1.89,17.21,3.53,13.13Z"/>
      <path class="st0" d="M365.03,428.26c1.78-1.22,2.69-3.83,3.31-5.77,2.78-8.63,3.08-17.54,4.46-26.37-8.89,1.12-17.74,2.8-26.58,4.56,4.93,6.35,7.68,13.86,11.98,20.72.53.84,4.64,8.36,6.82,6.86Z"/>
      <path class="st0" d="M587.21,163.19c-4.31-2.55-10.16-1.25-14.88-.04,3.5-3.75,7.19-7.79,9.7-12.01.21-.36-.14-.7-.49-.64-5.28.8-9.85,4.78-13.92,7.99-1.14.9-2.3,1.84-3.45,2.78-.06-.04-.12-.09-.18-.12,3.36-5.95,6.55-12.76,7.77-19.36.14-.78-.71-1.33-1.33-.77-4.99,4.53-8.65,10.62-12.49,16.12.5-5.6.73-11.16-.87-16.43-.18-.59-1.11-.82-1.41-.18-2.88,6.07-4.72,13.26-5.61,20.44-12.65,4.58-24.68,12.34-36.31,20.63-1.47-8.76-3.1-17.5-4.97-26.22-13.02-60.62-48.24-113.77-108.54-136.37-62-23.24-149.19-27.16-210.76-.55-52.06,22.5-87.97,83.78-112.26,150.58-12.08-10.99-24.69-21.35-38.46-28.16-.58-.29-1.19-.53-1.8-.73.95-5.55,1.55-11.36-.03-16.74-.15-.49-.9-.66-1.15-.15-1.98,4.09-3.5,8.48-4.78,12.92-2.68-6.67-5.88-13.02-10.05-18.97-.41-.58-1.34-.39-1.36.37-.18,7.33,1.69,13.98,4.01,20.78-4.98-3.62-10.55-8.07-16.51-9.81-.33-.09-.57.27-.42.55,2.88,5.34,7.83,10.04,12.07,14.44-.91-.24-1.83-.48-2.74-.71-4.68-1.19-11-2.91-15.76-1.55-.2.06-.29.28-.19.46,2.31,4.05,7.81,6.1,11.98,7.66,1.31.49,2.62.98,3.93,1.47-4.39,1.2-8.76,2.62-12.62,4.84-.47.27-.37,1,.15,1.14,5.28,1.45,11.09,1.33,16.58.64,5.71,15.32,16.31,29.13,28.1,41.6,4.77,5.05,29.43,29.52,55.76,43.98.3.16-.03.58-.3.52-16.12-3.58-30.34-11.12-43.34-20.82-19.65,71.94-27.44,140.14-28.75,164.13-2.12,39.22,2.52,78.27,19.55,115.12,11.5,24.87,29.28,44.78,50.99,60.56-6.62,17.67-10.17,36.71-13.7,55.42-39.51,3.18-34.49,13.98-15.76,28.73,8.55,6.73,16.57,9.88,27.23,12.09,9.97,2.06,17.48-1.55,23.38-9.52,9.24-12.46,11.66-29.48,14.79-44.31,1.23-5.83,3.59-12.24,5.77-18.8,61.94,27.3,138.96,33.28,197.63,29.99,12.33-.69,24.61-1.94,36.64-3.93,2.14,7.81,4.38,15.6,6.67,23.38,3.22,10.96,4.98,23.23,8.49,33.46,4.69,13.64,18.54,19.15,31.4,12.78,30.31-15.02,57.3-42.39,7.08-42.91-.78-3.63-1.63-7.25-2.48-10.85-2.18-9.27-4.85-18.42-7.41-27.6,22.94-9.06,43.55-22.83,59.75-43.75,35.44-45.75,36.65-113.94,39.66-168.58,2.8-50.68,3.56-101.7-.75-152.28-1.75.81-3.48,1.62-5.24,2.4-15.29,6.79-31.72,14.13-48.52,15.76-.35.03-.5-.55-.18-.66,42.18-14.58,67.93-35.66,76.97-43.54,10.25-8.94,19.26-19.01,24.6-31.06,5.89.84,12.12.79,17.07-1.19.58-.23.74-.97.18-1.33-3.61-2.29-8.08-4.22-12.7-5.47,4.98-1.95,10.38-3.93,14.56-6.84.28-.19.32-.61,0-.79ZM322.22,284.07c22.57,0,41.42,18.84,41.42,41.42s-18.85,41.42-41.42,41.42-41.42-18.84-41.42-41.42,18.84-41.42,41.42-41.42ZM193.2,286.52c16.48,0,30.23,13.75,30.23,30.23s-13.75,30.23-30.23,30.23-30.23-13.75-30.23-30.23,13.75-30.23,30.23-30.23ZM444.22,463.48c-7.12,26.4-23.51,53.97-47.81,67.96-55.7,32.08-128.5,31.08-189.3,14.56-51.6-14.02-104.06-44.6-115.24-101.03-4.27-21.55-6.2-49.72,7.5-68.63,5.85-8.09,15.12-16.78,25.97-16.11,14.17.86,24.86,9.46,36.61,16.57,36.32,22.27,86.27,27.59,127.75,25.91,28.75-1.16,55.86-8.84,84.19-12.16,18.5-2.17,38.35-2.12,54.39,8.58,20.06,13.4,21.62,43.24,15.94,64.35Z"/>
    </g>
  </g>
</svg>