<?xml version="1.0" encoding="UTF-8"?>
<svg id="Layer_2" data-name="Layer 2" xmlns="http://www.w3.org/2000/svg" viewBox="0 0 644.52 382.58">
  <defs>
    <style>
      .cls-1 {
        fill: #f4eae1;
      }
    </style>
  </defs>
  <g id="monsters">
    <g>
      <path class="cls-1" d="M247.16,138.38c-18.66,0-34.24,15.57-34.24,34.24s15.58,34.24,34.24,34.24,34.24-15.57,34.24-34.24-15.58-34.24-34.24-34.24Z"/>
      <path class="cls-1" d="M400.49,138.96c-18.76,0-34.42,15.66-34.42,34.42s15.66,34.42,34.42,34.42,34.42-15.66,34.42-34.42-15.66-34.42-34.42-34.42Z"/>
      <path class="cls-1" d="M618.5,39.22c.73-1.12,1.4-2.2,1.92-3.05,3.06-5.03,4.95-13.62,1.57-18.89-.14-.21-.52-.21-.57.08-1.02,5.76-3.84,10.49-7.09,15.26-.49.72-1.02,1.37-1.53,2.05-.05-.04-.1-.09-.16-.12,2.24-9.67-1.5-22.63-7.61-27.85-.38-.32-.96-.02-.84.49,1.4,5.82,2.55,12.28,1.73,18.31-.34,2.52-.98,4.66-1.72,6.75-.35-1.87-.75-3.66-1.16-5.22-1.99-7.65-8.43-15.69-17.03-15.4-.38.01-.46.46-.18.66,7.16,5.22,9.4,12.66,10.36,21.25.12,1,.13,2.03.12,3.09-1.56-.33-3.1-.78-4.5-1.46-2.44-1.16-4.75-2.58-6.39-4.78-1.33-1.79-1.99-3.97-3.44-5.64-.2-.23-.53-.12-.69.09-3.73,5.05,1.45,13.3,5.86,16.14,1.65,1.06,4.22,2.29,6.98,3.1,1.35,16.48,6.45,31.98,6.56,48.67.12,19.14-14.45,37.38-29.44,47.51-5.75,3.89-11.81,6.04-18.04,7.24-1.23-36.47-9.78-72.92-32.78-100.41C489.72,10.36,434.78,4.18,390.34,1.11c-30.88-2.13-74.93-1.57-118.98,4.93-51.18,3.95-106.17,11.31-144.23,46.93-23.03,21.55-32.72,53.32-35.38,85.56-2.61-.25-5.23-.61-7.88-1.25-35.61-8.61-41.71-52.49-34.22-82.19.07-.26.08-.52.13-.78,8.21-1.36,16.53-7.02,17.83-14.03.06-.36-.22-.73-.62-.61-5.12,1.46-9.65,4.49-14.83,5.88-1.23.33-2.46.47-3.69.54-.19-.35-.4-.69-.61-1.02.79-1.02,1.53-2.08,2.45-3.02,6.33-6.5,15.2-8.83,22.4-13.91.32-.23.35-.83-.12-.91-10.23-1.98-22.19,3.49-29.6,11.97.33-1.15.75-2.3,1.25-3.46,3.86-8.78,11.27-14.91,16.2-22.89.25-.41-.16-.8-.57-.73-8.48,1.34-17.92,11.1-23.07,22.08-.34-1.57-.62-3.14-.7-4.7-.46-9.16,3.2-18.24,6.53-26.56.15-.37-.32-.61-.61-.47-9.6,4.77-13.24,14.22-14.26,24.36-.43,4.35-.14,10.05,1.39,15.16-45.17,32.59-33.52,100.72,5.3,134.01,16.95,14.54,37.46,20.41,59.14,21.91,0,.06.01.13.02.19,5.43,40.99,24.37,86.68,59.6,110.06-2.82,17.84.89,36.72,12.53,50.39-4.64,4.65-7.32,25.95-3,23.9,5.11-2.43,8.83-7.97,12.75-11.89,8.98-8.97,19.56-13.23,9.95-31.31-2.9-5.46-3.04-11.9-2.92-18.3,59.91,14.58,231.24,17.08,291.82-3.98,1.27,7.14.22,14.12-2.25,20.83-4.66,12.68-9.51,16.14-.95,26.1,1.62,1.87,3.34,3.67,5.07,5.45,1.57,1.61,3.29,3.15,5.03,4.58.9.74,1.78,1.56,2.75,2.2.33.22,3.64,2.14,2.38,1.39,4.52,2.67,3.81-15.77,2.27-17.75-.35-.46-.75-.87-1.12-1.32,12.98-10.67,18.27-26.78,16.57-43.71-.44-4.43-1.42-9.14-2.9-13.81,26.53-23.64,44.42-64.93,48.87-96.86,26.09-1.71,51.37-13.09,70.41-34.69,30.73-34.84,34-98.06-1.98-130.15ZM263.17,309.77c-.19,2.52-4.12,4.32-5.35,1.45-1.97-4.62-1.62-10.23-1.42-15.18.19-4.7.5-9.46,2.61-13.74.26-.53,1.15-.54,1.41,0,2.07,4.31,2.08,9.05,2.19,13.74.1,4.49.9,9.28.57,13.73ZM292.36,311.16c-.85,3.07-5.35,3.07-6.2,0-1.21-4.35-.6-9.28-.44-13.77.14-4.08.68-8.3,2.35-12.04.4-.9,1.97-.9,2.38,0,1.66,3.73,2.25,7.98,2.35,12.04.11,4.51.77,9.39-.44,13.77ZM270,235.42c-34.32,23.31-76.35,23.71-109.91-1.16-.52-.38-.22-1.44.48-1.14,23.28,9.68,47.66,15.26,71.02,10.93-21.53,1.25-43.23-5.63-59.7-20.83-21.88-20.18-31.22-53.16-23.45-83.15,9.62-37.18,45.64-76.19,87.58-71.56,30.29,3.35,57.4,19.52,70.73,44.79,8.64,14.99,10.73,33.05,7.56,50.55-2.03,13.02-6.65,26.27-13.62,37.93-2.04,3.41-4.29,6.56-6.65,9.56-6.66,9.36-14.65,17.7-24.03,24.07ZM323.26,316.25c-8.38,0-2.08-28.18-.28-32.47.39-.92,1.51-.93,1.89,0,2.9,7.04,2.45,14.43,2.35,21.9-.04,2.56.56,10.57-3.96,10.57ZM335.74,254.3c-7.48-.42-14.99-.05-22.44-.51-4.35-.26-11.17-.77-13.52-5.27-2.98-5.73-.41-12.14,2.48-17.42,1.39-2.54,2.89-5.3,4.53-8.03,12.56-20.94,23.27-20.86,34.05,3.41,3.87,8.71,11.71,28.77-5.1,27.82ZM358.59,311.7c-4.72,0-3.65-7.54-3.6-10.33.09-4.73.01-9.74,2.65-13.88.45-.71,1.45-.71,1.91,0,2.9,4.54,2.57,10.18,2.67,15.35.05,2.66.62,8.86-3.62,8.86ZM387.76,308.21c-.49,3.75-6.07,4.03-6.06,0,.02-7.18.21-15.06,3.21-21.7.12-.26.57-.26.69,0,3.02,6.67,3.1,14.54,2.16,21.7ZM479.9,222.91c-10.8,9.96-23.86,16.27-37.63,19.15,17.13-.94,34.38-5.22,49.75-12.06,1.28-.57,2.23,1.04,1.09,1.87-44.49,32.47-120.03,23.83-144.18-30.26-3.38-7.58-5.8-15.38-7.23-23.23-3.77-14.74-4.2-30.99-.57-46.61,8.53-36.68,33.33-59.01,74.65-63.58,41.94-4.63,80.66,25.24,90.28,62.41,7.77,30-4.27,72.11-26.15,92.3Z"/>
    </g>
  </g>
</svg>