<?xml version="1.0" encoding="UTF-8"?>
<svg id="Layer_2" data-name="Layer 2" xmlns="http://www.w3.org/2000/svg" viewBox="0 0 303.47 495.72">
  <defs>
    <style>
      .cls-1 {
        fill: #f4eae1;
      }

      .cls-2 {
        fill: #fff;
      }
    </style>
  </defs>
  <g id="monsters">
    <g>
      <path class="cls-1" d="M258.33,8.05c-107.59,76.53-112.5,220.18-111.71,298.32-6.37.17-12.73.42-19.06.76-.25-9.74-.71-19.73-1.45-29.92C114.92,122.55,83.52,52.12,60.7,15.44,38.65-19.99-16.27,11.78,4.68,48.18c51.79,89.98,71.19,136.03,80.69,235.48,2.08,21.89.46,27.29-15.38,29.05-34.25,3.83-50.73,14.02-56.88,34.69-6.66,22.36-7.85,53.88-4.5,79.56,7.52,57.58,54.35,72.44,135.2,68.04,82.33-4.49,119.22-16.92,124.5-74.43,2-21.79.17-48.13-5.2-73.9-2.81-13.48-11.68-24.28-27.09-30.71-9.7-4.05-20.59-5.82-31.3-7.03-12.64-1.42-21.55-3.08-20.43-23.31,4.16-74.74,24.38-165.8,109.8-231.18,26.19-20.05-8.07-66.07-35.78-46.36Z"/>
      <g>
        <path class="cls-2" d="M109.21,372.27c-7.94-4.65-17.61-5.9-26.48-3.46-7.88,2.17-16.99,8.09-20.54,15.8-.07.14-.14.28-.2.43-1.16,2.73-2.31,5.46-3.46,8.2-1.64,6.08-1.64,12.16,0,18.25,2.36,8.58,8.1,16.02,15.77,20.51,7.93,4.64,17.58,5.9,26.44,3.46,2.73-1.15,5.46-2.31,8.2-3.46,5.16-3.05,9.26-7.16,12.31-12.31l.28-.38c5.27-6.93,5.67-18.49,3.47-26.48-2.36-8.59-8.11-16.04-15.8-20.54Z"/>
        <path class="cls-2" d="M183.98,364.13c-18.88,0-34.62,15.75-34.62,34.62s15.75,34.62,34.62,34.62,34.62-15.75,34.62-34.62-15.75-34.62-34.62-34.62Z"/>
        <path class="cls-2" d="M165.56,337.03c-18.05-.28-36.11,1.21-54.15,1.45-15.1.2-30.14.92-44.84,4.59-25.08,6.27-34.75,24.63-37.57,48.89-2.74,23.61,2.35,49.93,22.9,63.98,16.79,11.47,43,7.97,62.17,7.67,32.92-.52,66.29-2.07,98.83-7.33,10.08-1.63,19.26-4.01,25.22-12.81,1.91-2.82,3.23-6.16,4.21-9.75.78-2.11,1.44-4.36,1.87-6.87,3.79-22.35,5.45-47.15-4.23-68.3-11.47-25.06-52.11-21.18-74.41-21.53ZM241.48,413.47c-1.39,9.54-2.9,19.35-7.74,27.45-6.57,11-28.02,10.57-38.9,11.93-29.83,3.72-60.05,4.55-90.08,4.85-27.04.27-57.75.89-67.09-30.78-4.17-14.15-3.92-29.63-1.35-44.03,3.3-18.48,14.11-28.73,31.85-33.99,14.95-4.43,31.24-4.22,46.7-4.42,18.64-.25,37.24-1.61,55.89-1.32,17.62.27,39.17-.44,54.98,8.04,13.9,7.45,15.29,28.46,15.87,42.18.28,6.54.26,13.34-.13,20.1Z"/>
        <path class="cls-2" d="M155.87,297.82c.13.14.32.05.38-.1.51-1.28.77-2.46,1.01-3.84.33-1.9.98-3.85,1.17-5.75.17-1.7-.42-6.55-3.28-5.9-3.22.73-3.28,5.06-2.41,7.53.98,2.76,1.09,5.83,3.12,8.06Z"/>
        <path class="cls-2" d="M157.38,273.85c1.46-3.54,3.06-8.74,1.29-12.35-.73-1.49-3.21-1.49-3.94,0-1.77,3.61-.17,8.81,1.29,12.35.28.67,1.09.67,1.36,0Z"/>
        <path class="cls-2" d="M158.64,250.93c2.5-3.18,4.23-8.97,2.35-12.74-.38-.76-1.27-1.17-2.08-1.2-4.62-.14-2.59,11.07-1.7,13.55.19.54.99.93,1.43.38Z"/>
        <path class="cls-2" d="M161.53,225.48c2.27-3.08,3.29-7.32,3.81-11.05.53-3.8-5.24-5.5-5.85-1.61-.63,3.98-1.13,8.56.29,12.43.3.82,1.25.91,1.75.23Z"/>
        <path class="cls-2" d="M164.83,196.32c.07.5.71.78,1.01.27.46-.78,1.11-1.37,1.67-2.09.89-1.16,1.29-3.06,1.75-4.42.5-1.47,1.18-3.53.77-5.09-.39-1.49-1.15-2.1-2.12-3.21-.27-.3-.79-.28-1.06,0-.85.9-1.67,1.34-2.22,2.5-.59,1.24-.6,2.84-.6,4.19,0,1.44-.03,2.87.02,4.3.05,1.29.62,2.28.78,3.53Z"/>
        <path class="cls-2" d="M172.74,170.16c1.57-2.09,2.76-4.53,3.53-7.03.88-2.87.86-4.76-.88-7.21-.31-.45-.83-.5-1.24-.16-2.19,1.79-2.66,3.13-3.16,5.91-.45,2.55-.69,5.25-.62,7.84.03,1.36,1.65,1.62,2.38.65Z"/>
        <path class="cls-2" d="M179.06,146.27c3.38-2.15,6.76-7.97,4.96-11.89-.49-1.06-1.94-1.02-2.69-.35-1.51,1.35-1.68,3.27-2.18,5.15-.55,2.09-1.05,4.31-1.15,6.47-.02.53.62.9,1.07.61Z"/>
        <path class="cls-2" d="M186.98,123.94c1.49-1.35,2.88-2.39,4.15-4.05,1.43-1.88,2.62-4.85,1.97-7.16-.37-1.3-2.3-2.04-3.26-.86-2.49,3.06-2.59,7.99-3.52,11.69-.1.39.37.65.66.38Z"/>
        <path class="cls-2" d="M195.55,103.96c2.08-1.53,3.32-3.4,4.61-5.63,1.28-2.21,3.2-5.79,1.88-8.24-.5-.93-1.61-1.05-2.48-.65-2.21,1.02-2.55,4.28-3.13,6.4-.71,2.59-1.12,5.16-1.41,7.82-.03.26.33.46.53.3Z"/>
        <path class="cls-2" d="M208.91,79.35c2.7-1.44,6.35-5.62,6.09-8.78-.11-1.34-1.69-2.74-3.03-1.74-1.73,1.31-2.05,2.72-2.75,4.75-.61,1.76-1.2,3.53-.95,5.41.04.31.32.52.63.36Z"/>
        <path class="cls-2" d="M223.37,58.82c1.63.21,3.21-1.54,4.38-2.46,1.94-1.52,3.66-3.41,5.07-5.43,1.99-2.84-2.58-5.36-4.58-2.68-1.34,1.8-2.57,3.67-3.82,5.53-.79,1.17-2.13,3.2-1.53,4.66.09.23.23.34.48.37Z"/>
        <path class="cls-2" d="M244.78,32.43c-1.92,2.66-4.39,4.96-6.45,7.53-.33.41-.03.98.5.87,2.81-.57,5.15-1.61,7.38-3.43,1.46-1.19,4.8-4.83,2.57-6.75-1.52-1.3-3.15.6-4,1.78Z"/>
        <path class="cls-2" d="M266.17,15.82c-2.33-.85-4.07.85-5.79,2.24-2.14,1.74-3.25,3.8-4.62,6.1-.16.27.16.59.43.43,2.13-1.27,4.21-2.4,6.2-3.93,1.65-1.27,3.6-2.02,4.15-4.2.07-.29-.09-.54-.36-.64Z"/>
        <path class="cls-2" d="M113.45,283.48c-.24.07-.43.13-.64.27-1.05.69-1.49,1.79-1.23,3.01.98,4.51,1.36,10.04,4.26,13.76.12.16.42.07.45-.12.86-4.76,2.39-10.39.43-15.06-.55-1.32-1.75-2.31-3.28-1.86Z"/>
        <path class="cls-2" d="M113.24,259.67c-1.13,2.45-.63,4.79-.1,7.35.49,2.37.86,5.12,2.54,6.98.2.22.66.19.79-.1.91-2,.93-4.35,1.07-6.52.2-2.96.47-5.64-1.42-8.09-.69-.89-2.42-.62-2.88.37Z"/>
        <path class="cls-2" d="M112.77,235.98c-.4.91-1.07,1.28-1.14,2.35-.09,1.31.19,2.42.43,3.71.4,2.17,1.15,4.61,2.06,6.63.17.37.79.44,1.05.14,1.55-1.84,1.96-4.12,2.14-6.47.1-1.25-.09-3.28-.78-4.35-.92-1.43-1.45-1.43-2.82-2.25-.29-.17-.79-.1-.94.25Z"/>
        <path class="cls-2" d="M109.25,212.38c-1.92,3.23.41,8.72,2.48,11.46.19.25.54.22.65-.09,1.14-3.23,2.58-9.06-.21-11.75-.86-.83-2.29-.67-2.91.37Z"/>
        <path class="cls-2" d="M105.12,191.62c.22,2.95.68,7.14,3.17,9.12.29.23.71.24.91-.12,1.46-2.54.85-6.23.59-9-.07-.76-.38-1.69-1.16-2.02-1.21-.52-1.21-.62-2.36,0-.67.37-1.21,1.23-1.16,2.02Z"/>
        <path class="cls-2" d="M101.38,171.96c.66,1.86,1.32,4.37,3.1,5.41.16.09.41.08.53-.07,1.33-1.58,1.09-4.01,1.09-5.98,0-2.42-.13-4.89-2.3-6.29-.93-.6-1.96-.11-2.55.67-1.41,1.87-.6,4.23.12,6.26Z"/>
        <path class="cls-2" d="M99.03,154.52c.18.28.63.25.72-.1.71-2.78,2.8-12.85-2.38-12.85-1.96,0-2.31,3.17-2.07,4.46.57,2.96,2.09,5.99,3.73,8.49Z"/>
        <path class="cls-2" d="M87.21,118.56c.4,1.54,1.57,3.06,2.32,4.45,1.22,2.27,1.77,4.97,3.62,6.86.14.14.4.11.49-.06,1.43-2.65,1.18-5.98.77-8.86-.25-1.73-.76-3.23-1.62-4.74-1.11-1.94-2.7-1.67-4.52-2.04-.69-.14-1.14.4-1.05,1.05.16,1.14-.34,2.07,0,3.35Z"/>
        <path class="cls-2" d="M84.53,101.95c.18.08.35.04.46-.12,1.61-2.38.39-6.16-.2-8.72-.67-2.94-1.53-5.65-4.58-6.74-.29-.11-.56.08-.73.3-1.95,2.55-.97,5.17.14,7.87,1,2.43,2.31,6.27,4.92,7.41Z"/>
        <path class="cls-2" d="M75.84,74.65c.22.12.48.01.55-.22.93-3.09.71-14.92-4.82-13.4-3.4.94-2.41,5.11-1.33,7.4,1.21,2.56,3.15,4.87,5.6,6.22Z"/>
        <path class="cls-2" d="M64.61,49.31c.17.04.36-.05.41-.23.66-2.67.02-5.79-.71-8.42-.23-.84-.97-1.68-1.85-1.85-1.14-.22-1.68-.02-2.58.68-.73.58-.89,1.74-.68,2.58.68,2.77,2.36,6.54,5.42,7.24Z"/>
        <path class="cls-2" d="M55.18,29.69c.43.16.95-.26.92-.7-.16-2.53-.7-4.83-1.4-7.28-.56-1.96-2.61-6.51-5.48-4.83-3.06,1.79-1.68,5.77-.15,8.08,1.54,2.34,3.56,3.78,6.1,4.73Z"/>
        <path class="cls-2" d="M42.16,12.79c.23-.04.33-.26.35-.46.34-2.74-2.25-4.94-4.56-5.76-1.7-.6-2.78,1.41-2.13,2.77,1.1,2.29,3.73,3.95,6.34,3.46Z"/>
      </g>
    </g>
  </g>
</svg>