<?xml version="1.0" encoding="UTF-8"?>
<svg id="Layer_2" xmlns="http://www.w3.org/2000/svg" version="1.1" viewBox="0 0 303.5 495.7">
  <!-- Generator: Adobe Illustrator 29.6.0, SVG Export Plug-In . SVG Version: 2.1.1 Build 207)  -->
  <defs>
    <style>
      .st0 {
        fill: #383735;
      }
    </style>
  </defs>
  <path class="st0" d="M114.9,344.5c-15.5.2-31.8,0-46.7,4.4-17.7,5.3-28.5,15.5-31.8,34-2.6,14.4-2.8,29.9,1.3,44,9.3,31.7,40,31,67.1,30.8,30-.3,60.2-1.1,90.1-4.8,10.9-1.4,32.3-.9,38.9-11.9,4.8-8.1,6.4-17.9,7.7-27.5h0c.4-6.8.4-13.5.1-20.1-.6-13.7-2-34.7-15.9-42.2-15.8-8.5-37.4-7.8-55-8-18.7-.3-37.2,1.1-55.9,1.3ZM121.5,419.3l-.3.4c-3,5.2-7.2,9.3-12.3,12.3-2.7,1.2-5.5,2.3-8.2,3.5-8.9,2.4-18.5,1.2-26.4-3.5-7.7-4.5-13.4-11.9-15.8-20.5-1.6-6.1-1.6-12.2,0-18.2,1.2-2.7,2.3-5.5,3.5-8.2,0-.1.1-.3.2-.4,3.5-7.7,12.7-13.6,20.5-15.8,8.9-2.4,18.5-1.2,26.5,3.5h0c7.7,4.5,13.4,12,15.8,20.6,2.2,8,1.8,19.5-3.5,26.5ZM218.6,398.7c0,18.9-15.8,34.6-34.6,34.6s-34.6-15.8-34.6-34.6,15.7-34.6,34.6-34.6,34.6,15.8,34.6,34.6Z"/>
  <path class="st0" d="M258.3,8.1h0c-107.6,76.5-112.5,220.1-111.7,298.3-6.4.2-12.7.4-19.1.8-.2-9.7-.7-19.7-1.5-29.9C114.9,122.6,83.5,52.1,60.7,15.4,38.7-20-16.3,11.8,4.7,48.2c51.8,90,71.2,136,80.7,235.5,2.1,21.9.5,27.3-15.4,29-34.2,3.8-50.7,14-56.9,34.7-6.7,22.4-7.8,53.9-4.5,79.6,7.5,57.6,54.4,72.4,135.2,68,82.3-4.5,119.2-16.9,124.5-74.4,2-21.8.2-48.1-5.2-73.9-2.8-13.5-11.7-24.3-27.1-30.7-9.7-4-20.6-5.8-31.3-7-12.6-1.4-21.5-3.1-20.4-23.3,4.2-74.7,24.4-165.8,109.8-231.2,26.2-20-8.1-66.1-35.8-46.4ZM42.5,12.3c0,.2-.1.4-.4.5h0c-2.6.5-5.2-1.2-6.3-3.5-.7-1.4.4-3.4,2.1-2.8,2.3.8,4.9,3,4.6,5.8ZM55.2,29.7h0c-2.5-.9-4.6-2.4-6.1-4.7-1.5-2.3-2.9-6.3.1-8.1,2.9-1.7,4.9,2.9,5.5,4.8.7,2.5,1.2,4.8,1.4,7.3,0,.4-.5.9-.9.7ZM65,49.1c0,.2-.2.3-.4.2,0,0,0,0,0,0h0s0,0,0,0c-3.1-.7-4.7-4.5-5.4-7.2-.2-.8,0-2,.7-2.6.9-.7,1.4-.9,2.6-.7.9.2,1.6,1,1.8,1.8.7,2.6,1.4,5.8.7,8.4ZM76.4,74.4c0,.2-.3.3-.5.2-2.5-1.3-4.4-3.7-5.6-6.2-1.1-2.3-2.1-6.5,1.3-7.4,5.5-1.5,5.8,10.3,4.8,13.4ZM85,101.8c-.1.2-.3.2-.5.1h0c-2.6-1.1-3.9-5-4.9-7.4-1.1-2.7-2.1-5.3-.1-7.9.2-.2.4-.4.7-.3,3,1.1,3.9,3.8,4.6,6.7.6,2.6,1.8,6.3.2,8.7ZM171,161.7c.5-2.8,1-4.1,3.2-5.9.4-.3.9-.3,1.2.2,1.7,2.5,1.8,4.3.9,7.2-.8,2.5-2,4.9-3.5,7h0c-.7,1-2.3.7-2.4-.7,0-2.6.2-5.3.6-7.8ZM164,188.5c0-1.3,0-3,.6-4.2.5-1.2,1.4-1.6,2.2-2.5.3-.3.8-.3,1.1,0,1,1.1,1.7,1.7,2.1,3.2.4,1.6-.3,3.6-.8,5.1-.5,1.4-.9,3.3-1.8,4.4-.6.7-1.2,1.3-1.7,2.1-.3.5-.9.2-1-.3h0c-.2-1.3-.7-2.3-.8-3.5,0-1.4,0-2.9,0-4.3ZM159.5,212.8c.6-3.9,6.4-2.2,5.9,1.6-.5,3.7-1.5,8-3.8,11.1h0c-.5.7-1.4.6-1.8-.2-1.4-3.9-.9-8.5-.3-12.4ZM158.9,237c.8,0,1.7.4,2.1,1.2,1.9,3.8.2,9.6-2.3,12.7h0c-.4.5-1.2.2-1.4-.4-.9-2.5-2.9-13.7,1.7-13.6ZM154.7,261.5c.7-1.5,3.2-1.5,3.9,0,1.8,3.6.2,8.8-1.3,12.4-.3.7-1.1.7-1.4,0-1.5-3.5-3.1-8.7-1.3-12.4ZM155.2,282.2c2.9-.7,3.4,4.2,3.3,5.9-.2,1.9-.8,3.9-1.2,5.8-.2,1.4-.5,2.6-1,3.8,0,.1-.2.2-.4,0h0c-2-2.2-2.1-5.3-3.1-8.1-.9-2.5-.8-6.8,2.4-7.5ZM113.4,283.5c1.5-.5,2.7.5,3.3,1.9,2,4.7.4,10.3-.4,15.1,0,.2-.3.3-.4.1-2.9-3.7-3.3-9.2-4.3-13.8-.3-1.2.2-2.3,1.2-3,.2-.1.4-.2.6-.3h0ZM117.5,267.4c-.1,2.2-.2,4.5-1.1,6.5-.1.3-.6.3-.8.1-1.7-1.9-2-4.6-2.5-7-.5-2.6-1-4.9,0-7.3h0c.5-1,2.2-1.3,2.9-.4,1.9,2.5,1.6,5.1,1.4,8.1ZM116.5,238c.7,1.1.9,3.1.8,4.3-.2,2.4-.6,4.6-2.1,6.5-.3.3-.9.2-1-.1-.9-2-1.7-4.5-2.1-6.6-.2-1.3-.5-2.4-.4-3.7,0-1.1.7-1.4,1.1-2.3h0c.1-.3.6-.4.9-.2,1.4.8,1.9.8,2.8,2.2ZM112.2,212c2.8,2.7,1.4,8.5.2,11.8-.1.3-.5.3-.7,0-2.1-2.7-4.4-8.2-2.5-11.5h0c.6-1,2-1.2,2.9-.4ZM108.6,189.6c.8.3,1.1,1.3,1.2,2,.3,2.8.9,6.5-.6,9-.2.4-.6.4-.9.1-2.5-2-2.9-6.2-3.2-9.1h0c0-.8.5-1.6,1.2-2,1.1-.6,1.1-.5,2.4,0ZM103.8,165c2.2,1.4,2.3,3.9,2.3,6.3s.2,4.4-1.1,6c-.1.1-.4.2-.5,0-1.8-1-2.4-3.6-3.1-5.4h0c-.7-2-1.5-4.4-.1-6.3.6-.8,1.6-1.3,2.5-.7ZM97.4,141.6c5.2,0,3.1,10.1,2.4,12.9,0,.3-.5.4-.7,0-1.6-2.5-3.2-5.5-3.7-8.5-.2-1.3.1-4.5,2.1-4.5ZM87.2,115.2c0-.7.4-1.2,1.1-1,1.8.4,3.4,0,4.5,2,.9,1.5,1.4,3,1.6,4.7.4,2.9.7,6.2-.8,8.9,0,.2-.4.2-.5,0-1.9-1.9-2.4-4.6-3.6-6.9-.8-1.4-1.9-2.9-2.3-4.5h0c-.3-1.3.2-2.2,0-3.3ZM240,358.6c9.7,21.2,8,46,4.2,68.3-.4,2.5-1.1,4.8-1.9,6.9-1,3.6-2.3,6.9-4.2,9.8-6,8.8-15.1,11.2-25.2,12.8-32.5,5.3-65.9,6.8-98.8,7.3-19.2.3-45.4,3.8-62.2-7.7-20.6-14.1-25.6-40.4-22.9-64,2.8-24.3,12.5-42.6,37.6-48.9,14.7-3.7,29.7-4.4,44.8-4.6,18-.2,36.1-1.7,54.2-1.5h0c22.3.3,62.9-3.5,74.4,21.5ZM179.1,146.3h0c-.5.3-1.1,0-1.1-.6.1-2.2.6-4.4,1.2-6.5.5-1.9.7-3.8,2.2-5.1.8-.7,2.2-.7,2.7.3,1.8,3.9-1.6,9.7-5,11.9ZM191.1,119.9c-1.3,1.7-2.7,2.7-4.2,4-.3.3-.8,0-.7-.4.9-3.7,1-8.6,3.5-11.7,1-1.2,2.9-.4,3.3.9.7,2.3-.5,5.3-2,7.2ZM200.2,98.3c-1.3,2.2-2.5,4.1-4.6,5.6-.2.2-.6,0-.5-.3.3-2.7.7-5.2,1.4-7.8.6-2.1.9-5.4,3.1-6.4.9-.4,2-.3,2.5.7,1.3,2.5-.6,6-1.9,8.2ZM208.9,79.4h0c-.3.2-.6,0-.6-.4-.2-1.9.3-3.7,1-5.4.7-2,1-3.4,2.8-4.8,1.3-1,2.9.4,3,1.7.3,3.2-3.4,7.3-6.1,8.8ZM232.8,50.9c-1.4,2-3.1,3.9-5.1,5.4-1.2.9-2.8,2.7-4.4,2.5h0c-.2,0-.4-.1-.5-.4-.6-1.5.7-3.5,1.5-4.7,1.2-1.9,2.5-3.7,3.8-5.5,2-2.7,6.6-.2,4.6,2.7ZM246.2,37.4c-2.2,1.8-4.6,2.9-7.4,3.4-.5.1-.8-.5-.5-.9,2.1-2.6,4.5-4.9,6.5-7.5.8-1.2,2.5-3.1,4-1.8,2.2,1.9-1.1,5.6-2.6,6.8ZM266.5,16.5c-.5,2.2-2.5,2.9-4.2,4.2-2,1.5-4.1,2.7-6.2,3.9-.3.2-.6-.2-.4-.4,1.4-2.3,2.5-4.4,4.6-6.1,1.7-1.4,3.5-3.1,5.8-2.2h0c.3.1.4.4.4.6Z"/>
</svg>