<?xml version="1.0" encoding="UTF-8"?>
<svg id="Layer_2" xmlns="http://www.w3.org/2000/svg" version="1.1" viewBox="0 0 587.4 684.5">
  <!-- Generator: Adobe Illustrator 29.6.0, SVG Export Plug-In . SVG Version: 2.1.1 Build 207)  -->
  <defs>
    <style>
      .st0 {
        fill: #383735;
      }
    </style>
  </defs>
  <g id="monsters">
    <g>
      <path class="st0" d="M155.8,407.8c7.2-5.4,13.1-12.3,20.4-17.5-5.9-2.6-11.5-5.5-16.9-8.9-.7-.4-1.4-.9-2.2-1.4-2.3,4.6-4,9.5-4.8,14.6-.3,2-1.9,17.2,3.5,13.1h0Z"/>
      <path class="st0" d="M365,428.3c1.8-1.2,2.7-3.8,3.3-5.8,2.8-8.6,3.1-17.5,4.5-26.4-8.9,1.1-17.7,2.8-26.6,4.6,4.9,6.4,7.7,13.9,12,20.7.5.8,4.6,8.4,6.8,6.9h0Z"/>
      <path class="st0" d="M587.2,163.2c-4.3-2.6-10.2-1.2-14.9,0,3.5-3.8,7.2-7.8,9.7-12,.2-.4-.1-.7-.5-.6-5.3.8-9.8,4.8-13.9,8-1.1.9-2.3,1.8-3.5,2.8,0,0-.1,0-.2-.1,3.4-5.9,6.5-12.8,7.8-19.4.1-.8-.7-1.3-1.3-.8-5,4.5-8.7,10.6-12.5,16.1.5-5.6.7-11.2-.9-16.4-.2-.6-1.1-.8-1.4-.2-2.9,6.1-4.7,13.3-5.6,20.4-12.7,4.6-24.7,12.3-36.3,20.6-1.5-8.8-3.1-17.5-5-26.2-13-60.6-48.2-113.8-108.5-136.4-62-23.2-149.2-27.2-210.8-.5-52.1,22.5-88,83.8-112.3,150.6-12.1-11-24.7-21.4-38.5-28.2-.6-.3-1.2-.5-1.8-.7,1-5.6,1.5-11.4,0-16.7-.2-.5-.9-.7-1.2-.2-2,4.1-3.5,8.5-4.8,12.9-2.7-6.7-5.9-13-10.1-19-.4-.6-1.3-.4-1.4.4-.2,7.3,1.7,14,4,20.8-5-3.6-10.6-8.1-16.5-9.8-.3,0-.6.3-.4.6,2.9,5.3,7.8,10,12.1,14.4-.9-.2-1.8-.5-2.7-.7-4.7-1.2-11-2.9-15.8-1.6-.2,0-.3.3-.2.5,2.3,4.1,7.8,6.1,12,7.7,1.3.5,2.6,1,3.9,1.5-4.4,1.2-8.8,2.6-12.6,4.8-.5.3-.4,1,.2,1.1,5.3,1.4,11.1,1.3,16.6.6,5.7,15.3,16.3,29.1,28.1,41.6,4.8,5.1,29.4,29.5,55.8,44,.3.2,0,.6-.3.5-16.1-3.6-30.3-11.1-43.3-20.8-19.6,71.9-27.4,140.1-28.8,164.1-2.1,39.2,2.5,78.3,19.5,115.1,11.5,24.9,29.3,44.8,51,60.6-6.6,17.7-10.2,36.7-13.7,55.4-39.5,3.2-34.5,14-15.8,28.7,8.6,6.7,16.6,9.9,27.2,12.1,10,2.1,17.5-1.5,23.4-9.5,9.2-12.5,11.7-29.5,14.8-44.3,1.2-5.8,3.6-12.2,5.8-18.8,61.9,27.3,139,33.3,197.6,30,12.3-.7,24.6-1.9,36.6-3.9,2.1,7.8,4.4,15.6,6.7,23.4,3.2,11,5,23.2,8.5,33.5,4.7,13.6,18.5,19.2,31.4,12.8,30.3-15,57.3-42.4,7.1-42.9-.8-3.6-1.6-7.2-2.5-10.8-2.2-9.3-4.9-18.4-7.4-27.6,22.9-9.1,43.5-22.8,59.8-43.8,35.4-45.8,36.6-113.9,39.7-168.6,2.8-50.7,3.6-101.7-.8-152.3-1.8.8-3.5,1.6-5.2,2.4-15.3,6.8-31.7,14.1-48.5,15.8-.4,0-.5-.6-.2-.7,42.2-14.6,67.9-35.7,77-43.5,10.2-8.9,19.3-19,24.6-31.1,5.9.8,12.1.8,17.1-1.2.6-.2.7-1,.2-1.3-3.6-2.3-8.1-4.2-12.7-5.5,5-1.9,10.4-3.9,14.6-6.8.3-.2.3-.6,0-.8h0ZM322.2,284.1c22.6,0,41.4,18.8,41.4,41.4s-18.9,41.4-41.4,41.4-41.4-18.8-41.4-41.4,18.8-41.4,41.4-41.4h0ZM193.2,286.5c16.5,0,30.2,13.8,30.2,30.2s-13.8,30.2-30.2,30.2-30.2-13.8-30.2-30.2,13.8-30.2,30.2-30.2ZM444.2,463.5c-7.1,26.4-23.5,54-47.8,68-55.7,32.1-128.5,31.1-189.3,14.6-51.6-14-104.1-44.6-115.2-101-4.3-21.5-6.2-49.7,7.5-68.6,5.8-8.1,15.1-16.8,26-16.1,14.2.9,24.9,9.5,36.6,16.6,36.3,22.3,86.3,27.6,127.8,25.9,28.8-1.2,55.9-8.8,84.2-12.2,18.5-2.2,38.4-2.1,54.4,8.6,20.1,13.4,21.6,43.2,15.9,64.4h0Z"/>
    </g>
  </g>
</svg>