<?xml version="1.0" encoding="UTF-8"?>
<svg id="Layer_2" data-name="Layer 2" xmlns="http://www.w3.org/2000/svg" viewBox="0 0 241.95 485.57">
  <defs>
    <style>
      .cls-1 {
        fill: #f4eae1;
      }

      .cls-2 {
        fill: #fff;
      }
    </style>
  </defs>
  <g id="monsters">
    <g>
      <path class="cls-1" d="M216.61,63.32c15.78-14.86,24.08-36.17,25.33-57.99.22-3.92-4.94-4.66-6.85-1.85-7.53,11-19.44,19.08-32.17,24-1.72-2.4-3.64-4.7-5.77-6.88-26.2-26.81-98.75-26.25-129.22-3.39-3.77,2.83-6.93,6.27-9.7,10.08-10.78-5.95-19.1-16.58-26.48-26.12-1.74-2.25-6.28-1.07-6.67,1.76-2.09,15.04,3.24,47.82,19.52,57.01-.11.46-.24.92-.35,1.38-2.9,12.4-33.75,168.86-40.88,236.63-6.23,38.95-6.81,84.45,24.56,105.75,5.22,3.55,10.72,6.4,16.4,8.77.88,19.52,6.73,39.02,16.89,54.64-1.97.25-5.09,1.96-8.15,4.16-12.61,9.07-12.53,11.72,4.34,11.28,3.98-.11,7.97-.32,11.94-.56,22.1-1.28,20.62-.07,14.05-24.14-4.73-17.36-6.6-29.06-7.47-37.27,27.53,3.51,57,.06,83.47-1.35-1.32,6.98-4.82,23.5-10.83,37.96-5.27,12.7-7.46,22.6,7.62,26.26,6.67,1.62,14.11,2.44,21.06,2,14.34-.91,24.67-2.73,6.76-11.81-4.96-2.51-10.74-4.61-13.95-4.7,10.48-15.36,18.05-35.17,22.05-55.81,27.52-11.34,35.47-39.03,36.39-86.8,1.53-80.16-2.02-159.66-9.03-239.48-.68-7.76-1.5-15.71-2.89-23.53Z"/>
      <g>
        <path class="cls-2" d="M60.44,94.6c25.35,46.77,110.18,51.11,132.92.15.49-.72.76-1.56.81-2.46.01-.19.03-.38,0-.56-.01-.17.04-.32,0-.48-11.23-64.27-115.26-52.98-134.11.11-.45,1.25-.21,2.33.35,3.2.01.02,0,.03.02.05ZM88.12,72.22c17.33,19.81,63.25,20.68,80.22-.51,1.97,1.61,3.84,3.4,5.64,5.31-14.03,11.33-24.45,20.26-45.36,20.9-19.64.61-32.89-9.63-48.22-19.28,2.45-2.33,5.03-4.47,7.72-6.42ZM103.46,63.68c6.82,8.08,19.14,10.36,29.33,9.27,6.69-.72,16.09-4.04,22.17-9.41,2.97,1.31,5.85,2.87,8.61,4.69-8.87,5.47-16.79,11-28.12,13.42-16.49,3.5-32.22-.88-44.73-11.27,4.06-2.68,8.34-4.92,12.75-6.71ZM148.82,61.23c-4.07,2.89-8.22,5.62-13.74,7.06-10.92,2.84-19.11-.98-27.49-6.15,13.54-4.59,28.04-5.04,41.23-.91ZM77.55,81.53c18.5,29.1,83.21,32.53,101.18,1.18,2.14,2.91,4.09,6.1,5.84,9.56-28.71,39.42-84.94,35.51-115.24-.23,2.47-3.81,5.23-7.31,8.22-10.5Z"/>
        <path class="cls-2" d="M40.96,207.86c-.05,1.34.32,2.44,1,3.25,27.02,64.6,129.9,58.9,159.95-.64.03-.06.03-.12.05-.19.51-.85.7-1.9.31-3.06,0-.02-.01-.03-.02-.04-.02-.07-.05-.14-.08-.21-22.88-67.9-147.8-81.04-161.23.14-.04.25.01.46,0,.7,0,0,0,.02,0,.03ZM50.38,208.21c2.46-5.85,5.34-11.15,8.62-15.84,19.79,41.55,99.23,37.02,125.33,2.51,3.29,4.02,6.26,8.43,8.92,13.13-36.09,49.35-108.95,53.07-142.88.2ZM87.99,168.27c12.56,15.32,49.4,16.36,61.52.56,4.01,1.69,7.93,3.68,11.72,5.98-12.87,10.01-24.23,16.53-42.91,17.13-17.12.55-30.95-6.45-44.57-15.13,4.46-3.48,9.24-6.32,14.24-8.54ZM144.52,166.91c-7.19,4.75-13.81,7.93-23.71,8.45-11.48.61-19.55-3.83-28.35-8.88,16.47-5.96,34.9-5.58,52.06.43ZM70.91,179.11c22.79,21.85,75.25,25.5,94.98-1.27,4.99,3.48,9.71,7.5,14.04,12.05-38.17,30.46-82.25,33.08-117.34-2.24,2.6-3.16,5.39-5.99,8.32-8.55Z"/>
        <path class="cls-2" d="M206.47,332.86c-16.6-82.19-150.9-68.52-178.11-1.17-.61.74-.95,1.7-.8,2.78.03.65.26,1.21.6,1.71,0,.01,0,.02,0,.03,33.6,58.94,146.9,67.3,177.17.88.95-.96,1.52-2.36,1.14-4.23ZM63.1,306.17c28.48,28.68,85.17,27.66,115.51,1.67,2.65,2.44,5.13,5.13,7.47,8.03-4.06,5.7-17.55,12.84-21.46,15.23-12.26,7.47-26.78,10.4-40.87,11.43-27.03,1.98-51.78-9.77-69.35-29.52,2.77-2.45,5.68-4.73,8.7-6.85ZM84.77,294.55c16.76,17.34,58.1,18.71,75.33.8,5.05,2.41,9.86,5.35,14.32,8.89-37.55,20.4-70.25,21.93-107.75-.47,5.72-3.66,11.8-6.73,18.1-9.21ZM153.7,292.62c-9.16,5.06-17.57,9.47-29.85,10.14-13.29.72-23.44-4.36-34.23-10,21.08-7.13,44.11-7.58,64.08-.14ZM36.93,333.74c3.8-6.18,8.28-11.83,13.34-16.87,19.73,24.64,48.26,35.34,79.88,33.02,15.75-1.16,30.55-7.23,43.87-15.35,3.77-2.3,11.63-7.3,16.5-12.59,2.4,3.67,4.56,7.64,6.45,11.92-37.65,53.71-120.15,49.88-160.04-.12Z"/>
      </g>
    </g>
  </g>
</svg>