<?xml version="1.0" encoding="UTF-8"?>
<svg id="Layer_2" xmlns="http://www.w3.org/2000/svg" version="1.1" viewBox="0 0 241.95 485.57">
  <defs>
    <style>
      .st0 {
        fill: #383735;
      }
    </style>
  </defs>
  <path class="st0" d="M193.2,208c-2.7-4.7-5.6-9.1-8.9-13.1-26.1,34.5-105.5,39-125.3-2.5-3.3,4.7-6.2,10-8.6,15.8h0c33.9,52.9,106.8,49.1,142.9-.2Z"/>
  <path class="st0" d="M118.3,191.9c18.7-.6,30-7.1,42.9-17.1-3.8-2.3-7.7-4.3-11.7-6-12.1,15.8-49,14.8-61.5-.6-5,2.2-9.8,5.1-14.2,8.5,13.6,8.7,27.5,15.7,44.6,15.1Z"/>
  <path class="st0" d="M179.9,189.9c-4.3-4.6-9-8.6-14-12.1-19.7,26.8-72.2,23.1-95,1.3h0c-2.9,2.5-5.7,5.4-8.3,8.5,35.1,35.3,79.2,32.7,117.3,2.2Z"/>
  <path class="st0" d="M120.8,175.4c9.9-.5,16.5-3.7,23.7-8.5-17.2-6-35.6-6.4-52.1-.4,8.8,5,16.9,9.5,28.3,8.9Z"/>
  <path class="st0" d="M128.6,97.9c20.9-.6,31.3-9.6,45.4-20.9-1.8-1.9-3.7-3.7-5.6-5.3-17,21.2-62.9,20.3-80.2.5-2.7,2-5.3,4.1-7.7,6.4,15.3,9.6,28.6,19.9,48.2,19.3Z"/>
  <path class="st0" d="M184.6,92.3c-1.8-3.5-3.7-6.7-5.8-9.6-18,31.3-82.7,27.9-101.2-1.2h0c-3,3.2-5.8,6.7-8.2,10.5,30.3,35.7,86.5,39.7,115.2.2Z"/>
  <path class="st0" d="M174.4,304.2c-4.5-3.5-9.3-6.5-14.3-8.9-17.2,17.9-58.6,16.5-75.3-.8h0c-6.3,2.5-12.4,5.6-18.1,9.2,37.5,22.4,70.2,20.9,107.8.5Z"/>
  <path class="st0" d="M135.1,68.3c5.5-1.4,9.7-4.2,13.7-7.1-13.2-4.1-27.7-3.7-41.2.9,8.4,5.2,16.6,9,27.5,6.1Z"/>
  <path class="st0" d="M216.6,63.3h0c15.8-14.9,24.1-36.2,25.3-58,.2-3.9-4.9-4.7-6.8-1.9-7.5,11-19.4,19.1-32.2,24-1.7-2.4-3.6-4.7-5.8-6.9-26.2-26.8-98.8-26.2-129.2-3.4-3.8,2.8-6.9,6.3-9.7,10.1-10.8-5.9-19.1-16.6-26.5-26.1-1.7-2.2-6.3-1.1-6.7,1.8-2.1,15,3.2,47.8,19.5,57-.1.5-.2.9-.3,1.4-2.9,12.4-33.8,168.9-40.9,236.6-6.2,39-6.8,84.5,24.6,105.8,5.2,3.5,10.7,6.4,16.4,8.8.9,19.5,6.7,39,16.9,54.6-2,.2-5.1,2-8.1,4.2-12.6,9.1-12.5,11.7,4.3,11.3,4-.1,8-.3,11.9-.6,22.1-1.3,20.6,0,14.1-24.1-4.7-17.4-6.6-29.1-7.5-37.3,27.5,3.5,57,0,83.5-1.3-1.3,7-4.8,23.5-10.8,38-5.3,12.7-7.5,22.6,7.6,26.3,6.7,1.6,14.1,2.4,21.1,2,14.3-.9,24.7-2.7,6.8-11.8-5-2.5-10.7-4.6-14-4.7,10.5-15.4,18-35.2,22-55.8,27.5-11.3,35.5-39,36.4-86.8,1.5-80.2-2-159.7-9-239.5-.7-7.8-1.5-15.7-2.9-23.5ZM60.1,91.4c18.8-53.1,122.9-64.4,134.1-.1,0,.2,0,.3,0,.5,0,.2,0,.4,0,.6,0,.9-.3,1.7-.8,2.5-22.7,51-107.6,46.6-132.9-.2h0s0,0,0,0c-.6-.9-.8-2-.3-3.2ZM40.9,207.1c13.4-81.2,138.3-68,161.2-.1,0,0,0,.1,0,.2,0,0,0,0,0,0,.4,1.2.2,2.2-.3,3.1,0,0,0,.1,0,.2-30.1,59.5-132.9,65.2-160,.6-.7-.8-1.1-1.9-1-3.2h0c0-.3,0-.5,0-.8ZM205.3,337.1c-30.3,66.4-143.6,58.1-177.2-.9h0c-.3-.5-.6-1.1-.6-1.7-.2-1.1.2-2,.8-2.8,27.2-67.3,161.5-81,178.1,1.2h0c.4,1.9-.2,3.3-1.1,4.2Z"/>
  <path class="st0" d="M174,334.5c-13.3,8.1-28.1,14.2-43.9,15.3-31.6,2.3-60.2-8.4-79.9-33-5.1,5-9.5,10.7-13.3,16.9h0c39.9,50,122.4,53.8,160,.1-1.9-4.3-4-8.2-6.4-11.9-4.9,5.3-12.7,10.3-16.5,12.6Z"/>
  <path class="st0" d="M123.8,302.8c12.3-.7,20.7-5.1,29.9-10.1-20-7.4-43-7-64.1.1,10.8,5.6,20.9,10.7,34.2,10Z"/>
  <path class="st0" d="M123.8,342.5c14.1-1,28.6-4,40.9-11.4,3.9-2.4,17.4-9.5,21.5-15.2-2.3-2.9-4.8-5.6-7.5-8-30.3,26-87,27-115.5-1.7h0c-3,2.1-5.9,4.4-8.7,6.8,17.6,19.8,42.3,31.5,69.3,29.5Z"/>
  <path class="st0" d="M135.5,81.6c11.3-2.4,19.2-7.9,28.1-13.4-2.8-1.8-5.6-3.4-8.6-4.7-6.1,5.4-15.5,8.7-22.2,9.4-10.2,1.1-22.5-1.2-29.3-9.3h0c-4.4,1.8-8.7,4-12.8,6.7,12.5,10.4,28.2,14.8,44.7,11.3Z"/>
</svg>