<?xml version="1.0" encoding="UTF-8"?>
<svg id="Layer_2" xmlns="http://www.w3.org/2000/svg" version="1.1" viewBox="0 0 690 353.5">
  <!-- Generator: Adobe Illustrator 29.6.0, SVG Export Plug-In . SVG Version: 2.1.1 Build 207)  -->
  <defs>
    <style>
      .st0 {
        fill: #383735;
      }
    </style>
  </defs>
  <g id="monsters">
    <path class="st0" d="M686.4,46.6C649.6,3.2,594.8-7.9,540.9,5.2c-12.5,3-8.9,5-3.3,10.9,18.5,19.5,22.3,44.8,10,69.7-4.3,8.7-10.6,17.7-17.9,26.2-9.6-10-20.9-18.9-34-26.4-65.5-37.5-222.2-40.1-302.4-1.4-13.1,6.3-25.2,14.4-35.5,24.9-6.3-7.6-11.7-15.6-15.5-23.3-12.3-24.9-8.4-50.2,10-69.7,5.6-5.9,9.2-7.9-3.3-10.9C95.1-7.9,40.3,3.2,3.6,46.6c-9.1,10.8,1.4,9.1,6.7,8.5,21.2-2.4,42.4-5.2,63.6-2.5-16.1,10-29.5,21.5-39.9,37.6-10.4,16.2,3.2,8.6,7.9,6.5,17.6-8.1,37.4-10.5,56.4-6.8-12.1,10.5-21.3,23-29,37.2-4.6,8.5.4,10.7,7.7,3.4,10.4-10.3,24.2-19.4,39.2-18.1,12.9,1.2,19.8,7.9,27.3,15.1-10.6,17.3-17.1,39.4-17.3,68.1-.2,31.1,4.7,56.8,14.4,77.7-10.1,7.2-17.9,18.5-17.6,31.2.2,5.4,7.8,8,10.5,2.9,4.1-7.6,9.7-13.3,16.2-18,3.4,5,7,9.6,11.1,13.9-.2.3-.5.6-.7.9-8.9,12.1-12.2,28.2-10.4,43,.8,6.3,8.9,7.8,11.1,1.5,4-11.2,7.9-22.1,14.2-32.3,0,0,.1-.2.2-.3,30.5,23,74.9,33.7,132.7,35.9,54.1,2,119.9,1.9,171.6-18,8.8-3.4,17-6.9,24.5-10.9.7,7.9.2,15.9-1.7,23.3-1.7,6.5,7.1,10,10.7,4.5,7.8-12,9.8-25.4,7.8-38.3,8.1-6.1,15-13.4,20.8-22.2,3.8,5.8,6.1,12.6,7.7,20.4,1.2,5.5,9.4,5.1,10.8,0,3.9-14.3-1.1-27-10-37.3,6.9-17.9,10.4-41.2,9.8-72.4-.5-25.7-5.8-50.9-16.4-70.4,8.8-8.3,15.7-16.8,30.4-18.1,15-1.3,28.9,7.7,39.2,18.1,7.3,7.3,12.3,5,7.7-3.4-7.7-14.2-16.9-26.7-29-37.2,19-3.7,38.8-1.3,56.4,6.8,4.7,2.2,18.3,9.7,7.9-6.5-10.4-16.2-23.8-27.7-39.9-37.6,21.2-2.8,42.4,0,63.6,2.5,5.3.6,15.8,2.3,6.7-8.5h0ZM230.9,216.5c-18.9,0-34.7-15.8-34.7-34.7s15.8-34.7,34.7-34.7,34.7,15.8,34.7,34.7-15.8,34.7-34.7,34.7h0ZM492,191.6c-3.5,12.7-11.9,23.4-23.2,30.1,0,0-.1,0-.2.1-19.5,11.7-45.4,8-61.4-7.9-12.8-12.8-17.8-31.8-13-49.2,4.7-17,18.4-30.7,35.4-35.4,17-4.7,37,0,49.2,13,0,0,.1.1.2.2,12.4,13.2,17.9,31.3,13,49h0Z"/>
  </g>
</svg>