<?xml version="1.0" encoding="UTF-8"?>
<svg id="Layer_2" data-name="Layer 2" xmlns="http://www.w3.org/2000/svg" viewBox="0 0 377.46 247.5">
  <defs>
    <style>
      .cls-1 {
        fill: #f4eae1;
      }

      .cls-2 {
        fill: #fff;
      }
    </style>
  </defs>
  <g id="monsters">
    <g>
      <path class="cls-1" d="M58.13,71.7C9.87,94.62-.85,99.14.05,144.47c.41,19.93,6.79,40.45,14.4,57.7,19.49,44.22,51.97,52.77,94.81,39.82,69.96-21.13,213.26-75.03,228.56-81.19,46.87-18.84,50.6-50.79,19.48-119.24-11.14-24.51-24.89-38.23-49.6-41.32-37.62-4.7-224.79,59.67-249.57,71.45Z"/>
      <g>
        <path class="cls-2" d="M44.88,112.58c26.09-11.95,36.15-3.64,48.42,19.57.7,1.16,2.82,5.7,2.97,6.18.1.32,1.49,4.21,1.98,5.8,5.23,16.75,9.58,30.65,7.29,48.36-.31,2.34-.24,4.75-1.03,7.25-.11.21-1.04,2.23-1.46,2.54-4.48,7.3-10.52,11.27-18.74,13.83-14.39,4.49-23.47-1.86-31.51-13.75-.41-.74-4.07-6.36-5.09-7.95-.31-.42-.81-1.48-.9-1.8l-8.72-20.69s-.4-1.26-.59-1.89c-4.93-15.8-11.74-48.71,7.38-57.46ZM79.24,188.22c7.64-2.74.04-24.3-2.43-31.68-.2-.63-.4-1.25-.5-1.57-1.38-4.43-7.31-22.86-14.58-20.59-5.21,1.62-.29,22.98.75,26.29,7.45,26.64,10.95,29.53,16.76,27.56Z"/>
        <path class="cls-2" d="M112.35,100.5c22.03-10.1,30.51-3.08,40.87,16.52.59.98,2.39,4.82,2.51,5.22.08.27,1.25,3.56,1.68,4.89,4.41,14.14,8.07,25.88,6.15,40.82-.26,1.99-.2,4.03-.86,6.13-.09.17-.88,1.88-1.23,2.14-3.79,6.16-8.89,9.51-15.82,11.67-12.14,3.79-19.82-1.57-26.61-11.6-.34-.62-3.43-5.38-4.29-6.71-.26-.36-.68-1.25-.76-1.52l-7.36-17.46s-.33-1.07-.5-1.6c-4.16-13.33-9.91-41.11,6.23-48.5ZM141.36,164.34c6.45-2.31.04-20.51-2.05-26.74-.16-.54-.33-1.07-.42-1.33-1.16-3.74-6.17-19.3-12.3-17.38-4.41,1.37-.24,19.4.63,22.19,6.29,22.48,9.24,24.93,14.14,23.26Z"/>
        <path class="cls-2" d="M168.5,136.35c-.22-.23-1.03-1.88-1.11-2.14-2.05-6.09-3.96-12.23-6.01-18.32-.75-2.4-7.67-21.75-8.37-24.03-.04-.14-.5-1.6-.67-2.14-.09-.27-.59-1.87-.67-2.13-.29-.93,1.68-2.12,2.25-2.6,6.89-1.42,12.89-5.62,19.43-7.66,12.13-3.79,21.84-3.17,30.44,7.03,2.63,3.28,5.26,7,6.55,11.14l.04.12c.45,1.91,1.42,6.89,1.45,7.02.8,4.43-.97,9.09-1.37,13.46-2.9,6.17-5.73,10.71-10.42,15.39-1.44,1.48-4.46,2.12-5.12,4.24.31,2.39.72,3.73,1.43,5.99,1.58,5.07,3.96,9.88,5.59,15.09.3.93,1.62,5.64,1.95,6.71.16.97-.59,3.26-1.31,3.78l-3.4,2.23c-.09.18-8.91,3.8-12.56,5.24,0,0-.81.25-1.2.38-1.2.38-3.37.46-3.96-.96-4.54-12.64-8.45-25.18-12.98-37.82ZM186.57,115.92c.13-.04.45-.43.45-.43,3.02-.66,7.99-4.41,4.32-13.35-4.43-10.91-9.62-9.73-12.96-8.69-.54.17-.37.7-.25,1.1.04.13.17.53.17.53.12.4,4.52,10.75,4.65,11.15.16.53,1.41,4.53,1.58,5.07.21.67,1.34,3.83,1.68,4.45l.34.18Z"/>
        <path class="cls-2" d="M224.48,133.22c-.07-.27.15-2.78.17-3.79.19-1.5,2.19-2.74,3.08-3.7.28-.06.51-.27.78-.34,2.87-1.18,6.62-1.72,9.61-2.49.41-.1.87-.52,1.12-.15,5.47,17.78,11.91,9.19,11.76,8.65-2.88-13.39-14.58-12.82-22.41-18.02-3.48-2.28-7.68-5.66-9.54-9.5-.21-.23-.62-1.28-.69-1.56-.89-2.36-2.31-5.03-2.97-7.6-.77-2.98-.33-6.84.02-9.96.06-.3-.04-.72.02-1.02.97-12.95,13.48-20.38,24.71-23.29.54-.14,2.47-.5,3.01-.64,13.41-1.74,19.37,14.61,21.9,24.35.18.68,1.05,4.06,1.19,4.59,0,.58-.19,1.49-.62,2.05-.41.1-1.62.41-1.89.49-.4.1-1.76.45-1.89.5-2.47.48-11.03,1.99-13.4,2.32-1.32.48-1.73.02-2.01-1.08-.35-1.34-.33-2.94-.71-4.44-.28-1.08-.89-4.52-2.65-4.08-1.9.5-4.87,4.59-4.42,6.35l1.26,4.87c.53,2.03,3.79,4.08,5.29,4.84,14.51,8.07,29.3,10.02,30.37,35.86.49,10.27-6.31,14.63-15.49,19.32-.67.18-3.37.88-4.06,1.05-6.35,1.65-10.73,1.48-16.58-1.62-3.61-1.65-6.62-4.35-8.51-7.75-.03-.13-.35-1.35-.38-1.48-.55-1.6-1.84-2.12-2.5-3.54-1.01-2.78-2.76-5.65-3.49-8.48-.07-.27-.04-.71-.04-.71Z"/>
        <path class="cls-2" d="M285.13,128.19c.81-.69,2.46-1.06,3.12-1.27.41-.12,1.87-.58,2.27-.71,1.24.21,2.8-.42,3.85.12.35.19,1.87,1.32,2.22,1.5.73.95,1.06,2.02,1.39,3.08,1.51,4.81-1.44,8.51-5.04,9.63-2.67.83-7.37-1.07-8.48-4.68-.92-2.93-.6-5.22.67-7.67Z"/>
        <path class="cls-2" d="M306.88,121.4c.81-.69,2.45-1.06,3.12-1.27.41-.12,1.87-.58,2.27-.71,1.24.21,2.8-.42,3.84.12.35.18,1.87,1.31,2.22,1.5.73.95,1.07,2.02,1.4,3.08,1.5,4.8-1.45,8.5-5.05,9.62-2.67.84-7.36-1.07-8.48-4.67-.91-2.93-.6-5.22.68-7.68Z"/>
        <path class="cls-2" d="M328.63,114.61c.81-.69,2.45-1.06,3.12-1.27.4-.13,1.87-.59,2.27-.7,1.24.2,2.8-.43,3.85.12.34.19,1.87,1.32,2.22,1.49.73.95,1.07,2.02,1.4,3.08,1.5,4.81-1.44,8.51-5.05,9.63-2.67.83-7.36-1.07-8.48-4.67-.92-2.93-.61-5.22.67-7.68Z"/>
      </g>
    </g>
  </g>
</svg>