<?xml version="1.0" encoding="UTF-8"?>
<svg id="Layer_2" data-name="Layer 2" xmlns="http://www.w3.org/2000/svg" viewBox="0 0 814.38 213.79">
  <defs>
    <style>
      .cls-1 {
        fill: #f4eae1;
      }

      .cls-2 {
        fill: #fff;
      }
    </style>
  </defs>
  <g id="monsters">
    <g>
      <path class="cls-1" d="M801.83,36.91c-.53-.5-1.1-.93-1.66-1.41-7.27-8.16-17.75-13.8-29.55-15.6-2.02-.51-4.07-.92-6.18-1.13-1.41-.14-2.83-.21-4.35-.21-4.04,0-8.01.56-11.78,1.66-9.12,2.65-17.63,7.65-24.98,14.07-12.25,8.44-26.61,17.26-37,8.34-2.44-2.09-11.94-15.71-15.87-19.09-1.31-1.12-2.72-2.17-4.21-3.11-2.04-1.58-4.24-2.98-6.84-3.97-9.34-3.53-18.17-3.92-26.31-2.02-12.2,2.86-15.97,3.64-21.56-2.41-6.94-7.54-15.85-11.36-26.52-11.36-3.41,0-14.35-.65-23.77,8.42-4.73,4.55-9.16,9.03-13.06,12.83-10.59,10.3-19.63,13.33-32.33.35-1.57-1.6-3.16-3.31-4.81-5.07-10.4-11.16-19.47-15.38-34.57-16.6-24.15-1.95-48.98,1.58-73.23,1.03-10.15-.23-28.75-.7-44.14.32-48.67,3.24-54,29.78-105.71,29.62-23.48-.07-46.8,3.03-69.9,2.33-24.55-.74-43.38-7.31-55.36-16.78-8.21-6.5-16.88-10.78-25.67-13.15-27.69-7.49-63.81,5.55-85.02,36.31-22.94,33.27-24.51,84.86,2.85,115.66,6.32,7.11,16.17,11.74,26.37,13.64.71.23,1.4.5,2.12.7,4.34,1.22,9.24,1.82,14.98,1.82,4.62,0,13.55-.42,21.39-3.22,11.65-4.16,23.18-11.51,33.15-20.68,2.53,5.53,5.78,10.55,10.57,13.7,19.69,12.96,43.77,6.22,65.86,5.52,26.09-.83,50.09,7.51,76.35,1.05,5.79-1.42,41.57-5.42,48.12-2.26,32.19,15.55,81.39,10.35,110.94,8.87,15.48-.78,33.17-1.75,47.16-9.13,15.87-8.36,40.18-9.51,51.27,2.64,2.58,2.81,11.01,12.21,32.02,14.14,12.47,1.14,27.92-2.62,52.85-5.09,13.76-1.36,26.85-3.35,35.18-6.24,12.78-4.43,28.8-15.12,33.27.76-.03.18-.09.33-.11.51-2.08,15.44,6.14,30.89,20.02,37.57,4.92,2.36,10.28,3.56,15.94,3.56,5.12,0,10.4-1.01,15.73-3,20.12-7.58,40.83-24.7,54.04-44.69,5.02-7.6,13.72-25.45,16.92-34.7,2.69-7.78,5.53-18.87,6.89-26.97,1.56-9.28,3.07-26.29,3.05-34.32-.01-7.99-.03-21.36-12.55-33.2Z"/>
      <g>
        <path class="cls-2" d="M108.58,46.16c-7.03-6.57-14.14-9.85-25.65-11.83-3.85-.67-6.66-1.03-8.78-1.03-.71,0-1.34.04-1.91.12-2.28.32-3.53,1.3-4.59,3.06-.5.82-2.35,2.46-4.11,3.64-4.32,2.88-11.42,10.45-15.42,16.41-6.68,10-11.69,21.91-13.45,32.01-1.15,6.55-.77,18.84.76,24.99,1.24,5.02,4.1,11.97,6.36,15.49,3.45,5.38,9.19,9.6,15.42,11.35,4.03,1.13,13.35.73,17.49-.75,12.02-4.3,24.59-14.14,32.86-25.71,5.69-7.96,10.77-19.14,12.08-26.59.97-5.51,1.29-15.17.61-19.05-1.4-7.98-6.12-16.94-11.68-22.13ZM100.71,94.13c-6.65,13.07-15.59,22.43-26.74,28-4.27,2.13-5.45,2.48-8.69,2.61-6.58.27-9.34-1.85-12.67-9.74-2.55-6.05-3.14-9.41-3.14-18.03,0-6.29.21-8.42,1.2-12.1,2.67-9.98,8.88-21.96,14.79-28.54,2.29-2.54,2.88-2.94,3.7-2.51,1.52.81,5.15.62,6.62-.34.73-.48,1.93-2.04,2.65-3.47.97-1.92,1.24-2.42,2.12-2.4.29,0,.65.07,1.13.16,7.65,1.44,15.27,5.95,18.81,11.14,3.81,5.56,4.67,8.45,4.63,15.44-.04,8.05-1.29,13.6-4.43,19.79Z"/>
        <path class="cls-2" d="M189.3,66.85c-.35-.11-.72-.2-1.1-.23-.29-.03-.57-.03-.86-.02-.87.06-1.78.33-2.64.82-1.47.84-5.77,5.45-8.6,9.21-2.79,3.71-11.47,19.42-18.53,33.56-.87,1.74-1.72,3.32-1.89,3.51-.61.7-2.73-5.5-4.04-11.83-1.31-6.34-2.88-16.94-2.68-18.06.48-2.66-1.79-5.48-4.86-6.04-2.9-.52-5.03,1.11-7.32,5.6-1.02,1.97-2.04,4.1-2.29,4.72-.64,1.67.3,4.56,1.85,5.68,1.14.82,1.35,1.37,1.57,4.06.39,4.74,1.81,13.6,2.63,16.39.41,1.37,1.51,4.51,2.46,6.96,3.21,8.3,5.41,11.74,8.69,13.63,4.59,2.65,8.61.59,12.83-6.56,3.09-5.24,8.34-15.87,14.83-30.02,5.75-12.56,7.54-15.93,10.92-20.57,2.69-3.69,3.15-5.27,2.23-7.64-.62-1.6-1.8-2.69-3.21-3.16Z"/>
        <path class="cls-2" d="M233.84,68.53h0c-.58-.06-1.18-.07-1.8-.04-9.33.55-23.34,11.59-29.12,23.37-3.12,6.38-4.39,11.79-4.45,18.97-.06,6.26.38,8.32,2.73,13.03,2.53,5.06,8.59,9.92,14.29,11.45,3.25.87,10.42.89,13.81.04,4-1.01,10.76-4.48,12.41-6.36,2.73-3.1,1.39-7.72-2.54-8.81-1.3-.36-2.14-.27-4.17.47-6.25,2.27-8.39,2.74-11.29,2.5-8.14-.69-11.27-5.48-9.83-15.06l.3-2.02h2.85c3.6,0,5.66-.73,10.18-3.63,7.53-4.83,14.58-14.53,15.95-21.94,1.16-6.26-2.77-11.3-9.31-11.97ZM217.64,94.53c2.59-5.94,6.06-12.01,8.65-11.76,5.44,2.48-1.78,9.96-8.65,11.76Z"/>
        <path class="cls-2" d="M275.62,77.07c-2.2,1.55-2.25,1.56-2.14.56.6-5.52.59-6.39-.11-7.99-1.04-2.41-2.78-3.51-5.39-3.42-3,.1-4.61,1.45-5.33,4.46-.29,1.25-1.14,4.61-1.86,7.46-4.08,15.87-7.01,34.73-6.31,40.53.43,3.59,3.48,7.12,6.59,7.64,4.81.79,8.87-2.11,10.08-7.21.27-1.11,1.18-4.99,2.04-8.61,2.43-10.27,4.16-14.47,7.92-19.29,1.76-2.25,4.12-4.71,5.26-5.46l2.05-1.37,1.9.67c1.62.58,2.12.57,3.57-.06,3.85-1.67,4.65-6.05,1.68-9.27-4.33-4.69-12.08-4.16-19.93,1.35Z"/>
        <path class="cls-2" d="M356.78,71.38c-.93-.39-3.58-.81-5.9-.93-3.02-.17-4.2-.4-4.2-.82,0-.32.32-2.08.7-3.91.39-1.83,1.41-7.64,2.27-12.92.87-5.28,1.87-10.46,2.25-11.52.85-2.42.85-3.69.02-5.68-.89-2.14-3.1-3.41-5.29-3.33-.73.03-1.46.21-2.14.56-1.98,1.03-2.61,2.05-4.32,7.08-1.35,3.96-7.18,24.36-8.91,31.16l-.48,1.88-3.06.45c-1.78.26-3.5.28-4.11.05-3.51-1.32-8.65,1.06-9.58,4.45-.63,2.28-.13,4.1,1.59,5.83,1.66,1.65,4.25,2.62,9.08,3.4l3.22.52-1.29,7.57c-1.68,9.86-3.42,23.51-3.82,29.92l-.32,5.09,1.61,1.6c1.41,1.41,1.89,1.6,3.86,1.6,2.69,0,4.14-.96,5.23-3.48.94-2.17,8.09-31.59,9.49-39.04.88-4.7,1.18-5.56,1.95-5.74.5-.11,3.57-.95,6.81-1.86,6.92-1.94,8.37-2.97,8.7-6.23.25-2.54-1.03-4.71-3.38-5.71Z"/>
        <path class="cls-2" d="M414.77,88.86c-5.07-4.67-10.95-3.14-19.76,5.17l-3.04,2.87.37-3.27c.21-1.8.78-6.22,1.27-9.84,2.79-20.67,4-40.44,2.73-44.97-.77-2.77-3.42-4.54-5.98-4.44-.85.04-1.7.28-2.46.76-1.48.93-4.14,5.18-4.53,7.24-.14.76.12,1.93.7,3.03.51.99.93,2.56.93,3.51,0,2.9-2.5,18.03-5.68,34.41-.85,4.37-1.96,11.09-2.47,14.93-.51,3.84-1.12,8.24-1.37,9.76-.24,1.53-.75,5.53-1.14,8.91-.44,3.79-1.17,7.52-1.93,9.76-1.47,4.35-1.65,8.74-.45,10.98,2,3.72,6.92,5.28,10.66,3.37,2.46-1.26,3.42-2.74,4.61-7.1,2.32-8.46,10.67-21.73,18.5-29.38l2.2-2.14,1.06,1.56c.59.85,1.36,2.39,1.71,3.4,1.03,3,1.68,10.69,1.37,16.34-.16,2.87-.42,7.51-.58,10.31l-.29,5.09,1.6,1.6c1.4,1.41,1.89,1.61,3.82,1.61,4.25,0,5.19-1.49,6.76-10.79,2.11-12.51,1.95-23.68-.45-30.32-1.24-3.45-5.55-9.97-8.17-12.39Z"/>
        <path class="cls-2" d="M472.24,40.78c-1.02-.49-2.03-.76-3.02-.79-2.96-.12-5.66,1.74-7.06,5.12-1.65,4.02-.39,8.47,2.95,10.39,4.11,2.36,8.54.15,10.28-5.13,1.32-4.02,0-8.04-3.15-9.59Z"/>
        <path class="cls-2" d="M461.55,70.95c-2.96,0-3.93,1.47-6.51,9.92-5.87,19.22-7.71,28.58-8.16,41.58-.3,8.72.35,10.81,3.9,12.48,1.09.52,2.08.94,2.21.94,1.15-.01,3.55-1.11,4.25-1.94,1.36-1.62,5.77-18.35,7.98-30.29,1.76-9.48,3.41-26.29,2.76-28-1.26-3.25-3.21-4.69-6.42-4.69Z"/>
        <path class="cls-2" d="M529.27,78.64c-.94-3.5-2.54-6.06-4.74-7.6-1.69-1.19-2.36-1.38-4.76-1.36-3.19.02-5.11.84-7.65,3.26l-1.66,1.59.24-2.69c.23-2.55.16-2.8-1.21-4.35-.93-1.06-1.91-1.7-2.97-1.94-.26-.06-.53-.09-.81-.1-.83-.03-1.71.18-2.67.61-2.9,1.31-3.71,3.08-4.49,9.72-.47,4.09-4.14,21.55-5.23,24.95-.97,3.03-1.3,7.77-.67,9.67.79,2.4,3.59,4.74,6.12,5.11,1.69.26,2.48.11,4.22-.76,2.84-1.43,3.78-2.85,4.5-6.82.73-4,3.63-9.92,7.08-14.44,1.32-1.73,2.53-3.16,2.69-3.17.37-.03,2.87,8.67,3.97,13.84,1.52,7.1,2.34,9.41,3.93,10.99,1.2,1.2,1.84,1.48,3.38,1.48,2.29,0,4.13-1,5.22-2.84.87-1.48.88-.95-.46-13.43-.64-6.03-2.52-16.09-4.03-21.72Z"/>
        <path class="cls-2" d="M595.09,92.49c-2.51.27-13.06,5.14-20.12,9.29-2.55,1.5-4.69,2.56-4.73,2.35-.12-.48,3.27-15.53,6.23-27.7,2.89-11.91,6.77-24,8.23-25.73.6-.7,1.86-3.11,2.79-5.36,3.21-7.72,3.42-9.86,1.18-12.29-1.05-1.14-1.59-1.33-3.66-1.33-1.95,0-2.69.22-3.74,1.11-3.35,2.82-6.29,8.09-11.34,20.32-6.3,15.25-11.52,35.49-15.27,59.15-2.11,13.34-4.23,33.28-3.68,34.6.2.47.96,1.25,1.7,1.74.74.48,2.13.88,3.09.88,1.43,0,2.12-.32,3.67-1.71,2.12-1.89,2.12-1.91,4.51-13.32l1.19-5.72,4.19,2c2.3,1.1,6.46,2.91,9.23,4.01,2.77,1.1,6.88,3.13,9.13,4.51,5,3.06,6.56,3.24,9.24,1.03,2.18-1.8,3.04-4.41,2.18-6.58-1.12-2.82-6.87-7.18-15.84-12-6.85-3.68-8.36-4.67-7.77-5.08.41-.28,2.3-1.66,4.2-3.06,6.23-4.58,13.62-9.03,15.01-9.03,3.71,0,6.8-2.84,6.87-6.3.07-3.77-2.64-6.2-6.48-5.79Z"/>
        <path class="cls-2" d="M638.29,76.43c-2.96,0-3.93,1.47-6.51,9.92-5.87,19.23-7.71,28.58-8.16,41.58-.3,8.72.35,10.81,3.9,12.48,1.09.52,2.08.94,2.21.94,1.15-.02,3.55-1.11,4.25-1.94,1.36-1.62,5.77-18.35,7.97-30.29,1.76-9.48,3.41-26.3,2.76-28-1.26-3.26-3.21-4.69-6.42-4.69Z"/>
        <path class="cls-2" d="M648.98,46.26c-1.01-.5-2.03-.76-3.02-.79-2.96-.12-5.66,1.74-7.05,5.12-1.66,4.02-.39,8.47,2.95,10.39,4.1,2.36,8.54.15,10.28-5.13,1.31-4.02,0-8.04-3.15-9.59Z"/>
        <path class="cls-2" d="M706,89.6c-.94-3.51-2.54-6.06-4.74-7.61-1.68-1.19-2.36-1.38-4.76-1.36-3.19.02-5.11.84-7.64,3.26l-1.66,1.59.24-2.7c.23-2.55.16-2.79-1.21-4.35-.93-1.06-1.91-1.7-2.97-1.94-.27-.05-.54-.09-.81-.09-.84-.03-1.72.18-2.68.61-2.9,1.31-3.71,3.08-4.49,9.72-.47,4.1-4.14,21.55-5.23,24.96-.97,3.02-1.31,7.77-.68,9.67.79,2.4,3.59,4.73,6.12,5.11,1.69.25,2.48.11,4.22-.77,2.84-1.42,3.78-2.84,4.5-6.82.73-4.01,3.62-9.92,7.07-14.45,1.32-1.73,2.53-3.16,2.69-3.17.37-.02,2.87,8.67,3.97,13.84,1.52,7.1,2.34,9.41,3.93,10.99,1.2,1.2,1.84,1.48,3.38,1.48,2.29,0,4.13-1.01,5.22-2.85.87-1.47.89-.95-.46-13.43-.65-6.03-2.52-16.09-4.03-21.72Z"/>
        <path class="cls-2" d="M780.47,59.46c-2.83-2.68-6.45-3.17-10.03-1.36l-2.07,1.05.44-1.16c.92-2.42-.6-5.7-3.29-7.09-1.28-.66-2.73-1.07-4.2-1.22-.37-.04-.74-.06-1.11-.06-1.1-.01-2.2.12-3.23.43-14.03,4.08-27.23,20.33-27.28,33.59-.02,5.48,3.02,10.29,8.07,12.77,2.34,1.15,3.04,1.28,7.36,1.27,4.2,0,5.13-.17,7.85-1.31,1.7-.71,4.83-2.39,6.97-3.73l3.88-2.44-.31,2.83c-.51,4.74-2.9,16.14-4.57,21.8-1.64,5.56-5.69,15.73-9.06,22.8-6.21,13-19.47,27.06-31.33,33.23-4.37,2.28-5.66,3.55-5.97,5.97-.29,2.09.95,4.57,2.69,5.41,1.68.81,4.23.62,7.27-.52,14.04-5.28,29.48-18.22,39.07-32.74,3.59-5.42,11.16-20.99,13.49-27.74,2.12-6.13,4.54-15.6,5.62-21.96,1.27-7.52,2.64-22.7,2.62-29.11,0-6.94-.4-8.37-2.86-10.7ZM765.49,63.9c-1.76,3.29-7.27,9.27-12.13,13.19-1.84,1.48-4.58,3.31-6.08,4.07l-2.74,1.38.28-2.33c.17-1.46,1-3.71,2.23-6.01,3.52-6.67,11.53-13.93,13.93-12.64,1.16.62,3.94.61,5.12-.03.2-.1.35-.17.44-.16.26.02-.04.67-1.03,2.52Z"/>
      </g>
    </g>
  </g>
</svg>