<?xml version="1.0" encoding="UTF-8"?>
<svg id="Layer_2" data-name="Layer 2" xmlns="http://www.w3.org/2000/svg" viewBox="0 0 345.57 287.81">
  <defs>
    <style>
      .cls-1 {
        fill: #f4eae1;
      }

      .cls-2 {
        fill: #fff;
      }
    </style>
  </defs>
  <g id="monsters">
    <g>
      <path class="cls-1" d="M341.77,107.3c1.51-3.3,2.6-6.69,3.23-10.04,1.74-9.45-.49-19.19-6.12-26.72-5.69-7.6-14.52-12.54-24.04-13.53-1.22-.14-2.47-.2-3.75-.2-.54,0-1.55.02-2.09.06-7.8.46-15.31,3.47-21.92,7.88-2.15-.61-4.38-1.03-6.67-1.22-3.43-2.03-7.27-3.38-11.34-3.96-1.83-7.89-4.72-17.57-8.82-23.48-5.8-8.42-15.32-13.71-25.54-14.17-.45-.02-.91-.03-1.35-.03-.86,0-2.19.06-3.04.14-8.56.8-15.72,4.37-21.92,10.92-4.16,4.41-8.08,10.12-12.17,17.77.88-7.92.2-16.17-2.72-24.22-4.07-11.2-14.8-18.73-26.7-18.73-3.42,0-6.75.65-9.88,1.83-2.23-2.17-4.78-4.18-7.8-5.88-4.16-2.38-9.27-3.73-14.05-3.73-8.08,0-15.78,3.45-21.14,9.51-1.49,1.68-2.72,3.4-3.81,5.13-.09,0-.18-.03-.28-.03-7.26,0-13.91,2.79-18.94,7.37-4.59-2.42-9.77-3.73-15.31-3.73s-17.62,1.43-26.11,13.02c-4.99-3.31-10.9-5.18-17.04-5.19-12,0-23.44,7.23-28.42,17.87C1.03,50.26-.24,57.71.04,67.36c.27,9.57,1.72,15.77,5.54,23.69,5.18,10.73,14.07,18.81,24.73,22.59-1.12,4.6-2.41,9.32-3.41,12.49-6.05,19.23,3.08,30.54,9.08,35.59,1.21,1.02,2.51,1.88,3.83,2.7-2.72,8.4-4.79,17.06-6.78,28.1-1.62,8.95-2.17,12.95-2.43,20.53-.27,7.75-.68,19.45,10.04,30.15,8.29,8.28,17.24,9.51,22.03,10.16,2.47.34,4.91.41,6.52.41,1.15,0,2.24-.03,3.23-.1.64-.05,1.34-.12,2.06-.21,3.6,11.42,14.42,19.55,26.48,19.55h0c1.99,0,4.07-.23,6.02-.66,23.45-5.19,47.64-6.52,73.25-7.93,2.59-.13,5.28-.3,7.91-.46,2.14,8.9,8.05,16.74,16.49,20.82,4.19,2.01,8.74,3.02,13.52,3.02,4.25,0,8.59-.82,12.84-2.43,14.64-5.51,29.65-17.88,39.17-32.29,2.1-3.18,4.76-8.21,7.11-13.16,3.59-.18,7.16-.92,10.51-2.25,3.9,1.76,8.16,2.65,12.76,2.65,7.96,0,26.99-2.93,31.57-30.02,1.57-9.24,2.58-22.66-1.53-34.02-2.33-6.46-7.65-14.5-12.65-19.09-.76-.7-1.56-1.32-2.35-1.94,1.06-.27,14.26-3.81,22.08-12.71,7.15-8.13,9.57-19.16,6.49-29.46-.61-2.04-1.41-3.97-2.39-5.79Z"/>
      <g>
        <path class="cls-2" d="M73.63,191.69c3.47-1.76,22.36-7.98,25.67-8.45,1.64-.23,3.19-1.16,3.76-2.25.52-.98.29-3.17-.42-3.95-1.13-1.25-2.21-1.56-5.38-1.54-5.56.03-13.22,2.05-20.15,5.32-1.97.93-3.62,1.65-3.68,1.58-.06-.05.44-2.23,1.08-4.82,1.05-4.19,3.79-12.76,6.39-19.95l.88-2.44,1.71-.5c.95-.28,3.69-.91,6.08-1.38,17.79-3.54,16.22-3.15,17.39-4.39,1.78-1.89,1.14-4.73-1.29-5.74-2.53-1.06-9.71-.78-16.54.62-1.99.41-3.72.75-3.84.75s-.22-.3-.22-.68c-.01-1.72-1.84-3.32-3.7-3.43-.26-.02-.52-.01-.78.04-1.06.21-3.05,1.93-3.05,2.66,0,.2-.54,1.17-1.21,2.17-.67.99-1.29,2.28-1.39,2.88-.14.88-.36,1.16-1.15,1.44-2.46.89-3.43,3.25-2.28,5.6l.67,1.4-1.71,4.12c-4.91,11.76-7.64,21.38-10.4,36.65-1.5,8.31-1.8,10.84-2,16.61-.23,6.69-.02,7.73,2.01,9.75,1.47,1.48,2.43,1.84,6.32,2.38,1.07.15,2.9.2,4.06.12,2.56-.19,9.6-1.62,13.09-2.67,2.81-.84,7.78-2.02,10.83-2.56,2.29-.41,3.35-.96,4.03-2.11,1-1.68.36-4.08-1.3-4.95-1.67-.86-7.15-.42-14.57,1.19-8.21,1.77-14.49,2.42-14.83,1.52-.3-.76.7-8.74,2.01-15.96,1.38-7.65,1.44-7.77,3.9-9.03Z"/>
        <path class="cls-2" d="M121.85,181.36c-.61-.71-1.26-1.12-1.96-1.28-.18-.04-.36-.06-.55-.07-.54-.01-1.14.12-1.77.41-1.92.88-2.46,2.04-2.98,6.45-.32,2.72-2.74,14.29-3.47,16.55-.65,2-.86,5.16-.45,6.42.53,1.58,2.39,3.14,4.06,3.39,1.12.17,1.65.07,2.79-.5,1.89-.95,2.51-1.9,2.99-4.53.48-2.66,2.4-6.57,4.69-9.57.88-1.15,1.68-2.09,1.78-2.1.24-.01,1.9,5.75,2.64,9.18,1.01,4.71,1.55,6.24,2.6,7.29.8.79,1.22.99,2.24.99,1.52,0,2.74-.68,3.46-1.9.58-.98.59-.62-.3-8.91-.43-3.99-1.67-10.68-2.68-14.41-.62-2.32-1.68-4.01-3.14-5.04-1.12-.78-1.57-.92-3.16-.9-2.11,0-3.39.55-5.06,2.16l-1.11,1.06.17-1.79c.15-1.69.1-1.85-.81-2.89Z"/>
        <path class="cls-2" d="M156.77,182.18c-.38.18-.53.12-.53-.18,0-.76-1.83-2.33-3.1-2.68-.44-.12-.86-.18-1.28-.17-1.24.03-2.39.62-3.55,1.83-2.76,2.85-4.36,6.66-5.19,12.28-.89,6.02-.14,9.69,2.59,12.67,1.64,1.8,3.98,3.03,6.64,3.48h0c1.9.32,4.21.16,6.75-.48,5.59-1.39,11.47-6.79,13.09-12.04,2.56-8.27-3.26-15.44-12.24-15.07-1.46.05-2.9.22-3.18.35ZM163.64,194.25c-.57,1.35-3.26,3.92-5.14,4.89-1.62.82-4.63,1.19-5.78.7-1.11-.48-1.42-2.33-1.02-6.35.47-4.8.62-5.16,2.45-5.74.65-.2,1.04-.3,1.28-.31.25,0,.34.08.42.25.26.68,1.66,1.25,3.89,1.6,3.85.61,5.06,2.17,3.9,4.97Z"/>
        <path class="cls-2" d="M191.64,212.46c2.03.54,6.08.53,7.67-.04,2.45-.87,7.06-4.76,9.22-7.79l.61-.88.18,3.19c.19,3.43.58,4.56,1.91,5.6.53.42,1.23.62,2.11.62,1.07,0,1.52-.18,2.43-1.01l1.11-1.02.39-7.18c.21-3.96.42-10.52.46-14.58l.08-7.4-.84-1.12c-.46-.61-1.24-1.31-1.72-1.56-.47-.24-1-.38-1.56-.43-.21-.02-.42-.02-.64-.01-1.5.05-3.06.73-3.89,1.83-.3.4-.95,1.94-1.45,3.43-2.04,6.04-6.32,13.44-9.79,16.93-1.67,1.68-2,1.89-3.06,1.89-1.56,0-2.52-.79-3.35-2.72-1.31-3.05-.83-11.34.73-12.64.25-.21.74-1.31,1.08-2.45l.62-2.06-.64-1.32c-1.07-2.21-3.16-2.85-5.19-1.61-1.9,1.16-3.21,3.38-4.78,8.05-1.3,3.89-1.8,10.01-1.08,13.28,1.34,5.99,4.49,9.69,9.38,10.99Z"/>
        <path class="cls-2" d="M253.1,177.69l-1.38.7.28-.77c.61-1.6-.4-3.77-2.18-4.7-.85-.44-1.81-.71-2.79-.81-.24-.02-.48-.04-.73-.04-.74-.01-1.47.09-2.14.29-9.31,2.7-18.06,13.48-18.09,22.27-.01,3.64,2,6.82,5.35,8.47,1.55.76,2.03.84,4.89.83,2.79,0,3.4-.1,5.2-.86,1.13-.47,3.2-1.58,4.62-2.48l2.57-1.6-.21,1.88c-.33,3.15-1.92,10.7-3.03,14.46-1.08,3.69-3.78,10.43-6.01,15.11-4.11,8.62-12.91,17.94-20.78,22.03-2.9,1.51-3.75,2.35-3.97,3.96-.18,1.38.64,3.03,1.79,3.59,1.12.53,2.8.42,4.82-.34,9.31-3.51,19.55-12.08,25.91-21.72,2.38-3.59,7.4-13.92,8.95-18.39,1.4-4.07,3.01-10.35,3.72-14.57.84-4.99,1.75-15.05,1.74-19.3,0-4.6-.26-5.55-1.89-7.09-1.88-1.78-4.28-2.1-6.65-.91ZM249.82,181.54c-1.16,2.18-4.82,6.15-8.05,8.74-1.21.99-3.03,2.2-4.03,2.71l-1.82.92.19-1.55c.11-.97.66-2.46,1.46-3.99,2.35-4.42,7.66-9.23,9.25-8.38.77.42,2.61.41,3.39-.02.13-.07.23-.11.3-.1.17.02-.03.45-.69,1.68Z"/>
        <path class="cls-2" d="M299.3,177.4c-3.36-3.1-7.26-2.08-13.09,3.43l-2.02,1.9.25-2.16c.14-1.2.52-4.14.84-6.54,1.85-13.7,2.64-26.81,1.81-29.81-.51-1.83-2.26-3.01-3.97-2.94-.56.02-1.12.18-1.62.49-.98.62-2.74,3.44-3.01,4.81-.09.5.08,1.27.46,2,.34.66.62,1.71.62,2.33,0,1.92-1.66,11.95-3.77,22.81-.56,2.9-1.3,7.36-1.64,9.91-.34,2.54-.75,5.46-.91,6.48-.16,1.01-.51,3.67-.76,5.9-.29,2.51-.78,4.99-1.28,6.47-.97,2.89-1.09,5.8-.29,7.29,1.32,2.47,4.58,3.5,7.06,2.24,1.62-.83,2.27-1.82,3.06-4.71,1.54-5.62,7.07-14.42,12.26-19.48l1.46-1.43.71,1.03c.39.57.9,1.59,1.14,2.26.69,1.99,1.11,7.09.91,10.84-.1,1.9-.28,4.98-.39,6.83l-.19,3.38,1.06,1.06c.93.94,1.26,1.06,2.54,1.06,2.81,0,3.43-.98,4.47-7.15,1.42-8.29,1.3-15.71-.29-20.1-.82-2.29-3.68-6.6-5.42-8.21Z"/>
        <path class="cls-2" d="M64.89,123.28c.9-3,2.65-8.64,3.88-12.53,2.47-7.76,6.16-21.3,7.1-26.03.32-1.66,1.07-6.14,1.66-9.94.59-3.81,1.28-8.07,1.53-9.49.24-1.41.59-3.71.75-5.12.18-1.41.53-3.9.8-5.53.56-3.47.3-5.34-.98-7.02-1.03-1.34-2.21-1.9-4.04-1.9-2.64,0-3.95,1.05-5.28,4.21-1.65,3.99-4.12,8.59-6.35,11.85-8.62,12.59-14.36,17.66-20,17.66-2.88,0-5.15-1.77-6.75-5.27-1.56-3.41-1.97-5.41-2.04-9.84-.04-3.3.03-4.16.46-4.91,1.39-2.43-.47-5.86-3.18-5.86-1.32-.01-3.08,1.05-3.6,2.17-1.05,2.21-1.49,5.76-1.34,10.86.16,5.72.7,8.12,2.82,12.51,2.18,4.51,5.95,7.83,10.15,8.96,2.07.54,6.15.52,8.43-.05,4.91-1.25,9.86-4.59,15.22-10.29,1.67-1.77,3.03-3.02,3.03-2.78,0,3.17-3.73,20.55-7.19,33.56-.97,3.64-2.2,8.45-2.73,10.68-1.33,5.53-2.88,11.23-4.13,15.21-1.2,3.8-1.1,4.92.54,6.29.68.57,1.27.78,2.21.78,1.6,0,2.65-.77,3.6-2.67,1.04-2.06,3.57-9.28,5.43-15.51Z"/>
        <path class="cls-2" d="M93.27,122.08h0c1.9.32,4.21.17,6.75-.47,5.59-1.38,11.46-6.8,13.09-12.05,2.56-8.27-3.26-15.44-12.24-15.07-1.46.05-2.9.22-3.18.35-.38.18-.53.11-.53-.18,0-.75-1.83-2.33-3.1-2.68-.44-.11-.86-.18-1.27-.17-1.24.03-2.4.62-3.55,1.83-2.76,2.85-4.36,6.66-5.19,12.28-.89,6.02-.14,9.69,2.59,12.68,1.64,1.79,3.98,3.02,6.64,3.47ZM92.62,106.15c.47-4.8.62-5.16,2.45-5.74.65-.2,1.04-.3,1.28-.31.24,0,.34.08.42.26.26.67,1.66,1.25,3.89,1.6,3.85.6,5.06,2.16,3.9,4.96-.57,1.36-3.27,3.92-5.14,4.88-1.62.83-4.63,1.2-5.78.7-1.11-.48-1.42-2.33-1.02-6.35Z"/>
        <path class="cls-2" d="M134.33,123.35c2.03.55,6.08.53,7.67-.03,2.45-.87,7.06-4.77,9.22-7.8l.62-.86.18,3.18c.19,3.43.58,4.56,1.91,5.62.54.41,1.23.61,2.12.61,1.07,0,1.52-.18,2.43-1.01l1.11-1.01.39-7.2c.21-3.95.42-10.51.46-14.57l.08-7.4-.84-1.11c-.46-.6-1.24-1.31-1.72-1.56-.47-.24-1-.38-1.56-.43-.21,0-.43,0-.64,0-1.5.06-3.06.73-3.89,1.83-.3.41-.95,1.95-1.45,3.43-2.04,6.05-6.32,13.44-9.79,16.94-1.67,1.68-2.01,1.88-3.06,1.88-1.56,0-2.52-.78-3.35-2.72-1.31-3.05-.83-11.33.73-12.63.25-.21.73-1.3,1.08-2.44l.62-2.06-.65-1.33c-1.06-2.2-3.16-2.85-5.19-1.61-1.9,1.17-3.21,3.38-4.78,8.06-1.31,3.89-1.8,10.01-1.08,13.27,1.34,5.99,4.49,9.69,9.38,10.99Z"/>
        <path class="cls-2" d="M205.8,130.55c1.03-2.23,5.26-12.77,4.67-13.91-.36-.69-.34-.99.14-2.67.3-1.05.55-1.95.55-2.01s1.48-.03,3.3.07c4.33.25,17.91.26,21.28,0,2.14-.16,2.68-.11,2.77.2.17.56,1.51,13.71,1.9,18.5.34,4.46.64,5.35,2.01,6.2,1.1.67,1.93.69,3.19.08,2.06-.98,2.29-2.71,1.81-13.44-.17-3.86-.5-11.32-.73-16.57-.68-15.6-1.24-22.75-2.41-30.9-1.38-9.57-4.62-21.52-6.65-24.44-.96-1.4-2.46-2.24-4.05-2.31-.22-.01-.45,0-.69.02-1.87.18-2.91.74-4.5,2.42-4.1,4.35-8.64,12.32-14,24.59-3.83,8.76-6.47,16.5-8.56,25.12-.7,2.88-1,3.65-1.7,4.36-1.21,1.25-1.47,2.39-.93,4.05.42,1.3.4,1.49-.33,4.54-1.44,6.04-5.4,18.12-3.36,19.37,2.37,1.44,4.65.24,6.29-3.3ZM214.02,101.88c.73-2.43,3.27-9.41,4.71-12.97,1.67-4.11,8.25-17.39,10.78-21.74l2.1-3.62.31,1.14c2.65,9.83,3.99,18.76,5.72,37.84l.1,1.11h-24.26l.53-1.77Z"/>
        <path class="cls-2" d="M276.46,99.66l1.36-.91,1.26.44c1.07.39,1.41.38,2.36-.03,2.56-1.11,3.08-4.02,1.11-6.16-2.88-3.1-8.02-2.76-13.22.91-1.46,1.02-1.49,1.03-1.42.36.4-3.66.39-4.24-.07-5.3-.7-1.59-1.84-2.32-3.57-2.26-1.99.06-3.06.96-3.54,2.96-.19.82-.75,3.05-1.24,4.94-2.7,10.53-4.65,23.03-4.18,26.88.28,2.38,2.3,4.72,4.38,5.06,3.18.52,5.88-1.41,6.68-4.78.18-.74.79-3.31,1.35-5.71,1.61-6.8,2.76-9.59,5.25-12.79,1.17-1.49,2.73-3.12,3.48-3.61Z"/>
        <path class="cls-2" d="M298.76,109.22h1.89c2.39,0,3.76-.49,6.75-2.41,4.99-3.21,9.67-9.64,10.58-14.55.77-4.15-1.84-7.49-6.18-7.94-.39-.04-.78-.05-1.19-.02-6.19.37-15.48,7.69-19.31,15.5-2.07,4.23-2.91,7.81-2.95,12.58-.03,4.16.25,5.52,1.81,8.63,1.68,3.35,5.7,6.57,9.48,7.59h0c2.15.58,6.91.58,9.16.02,2.65-.67,7.14-2.97,8.23-4.22,1.81-2.06.93-5.12-1.68-5.84-.87-.24-1.42-.18-2.77.31-4.14,1.5-5.56,1.81-7.49,1.66-5.4-.46-7.47-3.64-6.52-9.99l.2-1.33ZM306.79,93.77c3.61,1.65-1.18,6.59-5.73,7.79,1.71-3.95,4.02-7.96,5.73-7.79Z"/>
        <path class="cls-2" d="M140.97,70.64c.08.09.25.09.32,0,4.41-5.6,3.91-11.88,2.9-18.66-1.17-7.76-1.1-20.1-8.71-24.4-.3-.17-.73-.15-.97.12-5.32,6.02-1.75,14.79-.43,21.81,1.42,7.5,1.82,15.07,6.89,21.12Z"/>
        <path class="cls-2" d="M159.91,68c7.19-8.01,11.54-21.73,7.77-32.11-.2-.55-.97-.9-1.42-.38-7.02,8.05-12.07,22.2-7.06,32.39.12.26.53.3.71.09Z"/>
        <path class="cls-2" d="M121.77,67.45c.27.12.55-.02.57-.32.55-9.7-4.91-18.7-12-24.84-.49-.42-1.12-.11-1.19.5-1.11,9.62,3.36,20.53,12.62,24.67Z"/>
        <path class="cls-2" d="M215.67,233.27c-36.95-3.48-81.11-7.2-114.88,11.64-.35.19-.1.71.26.61,37.76-8.35,76.29-7.5,114.62-11.01.8-.07.8-1.17,0-1.24Z"/>
      </g>
    </g>
  </g>
</svg>