<?xml version="1.0" encoding="UTF-8"?>
<svg id="Layer_2" xmlns="http://www.w3.org/2000/svg" version="1.1" viewBox="0 0 259.7 205.8">
  <!-- Generator: Adobe Illustrator 29.6.0, SVG Export Plug-In . SVG Version: 2.1.1 Build 207)  -->
  <defs>
    <style>
      .st0 {
        fill: #383735;
      }
    </style>
  </defs>
  <path class="st0" d="M124.4,100.9c-1.2-.2-2.7.5-5.3,2.4h0c-5,3.6-7,6-8.1,10.1-.3,1.2-.5,2.1-.5,2,0,0,2-1.8,4.2-3.9,2.2-2.1,5.7-5.2,7.7-7l3.6-3.2-1-.3c-.2,0-.3-.1-.5-.1Z"/>
  <path class="st0" d="M163.6,9.7h0C131.2,3.2,64.2-16.9,20.2,31.4c-27,29.6-27.6,94.9,1.8,117.4,44.5,34,111.3,58.1,157.9,57,42.7-1,70.3-48.7,77.9-86.7,11.2-56.1-26.9-95.9-94.2-109.4ZM79.7,123.3c-3.7,6.8-8.5,14.6-10.3,16.8-1.6,2-3,2.6-4.9,2.2-1.1-.2-1.7-.6-2.4-1.5-1.6-2-1.4-3.4,1-7.5,2.5-4.3,5.7-10.6,8.7-16.7,1.2-2.5,3.8-7.8,5.9-11.8,7.3-14.3,16.1-33.7,16.9-37.4,0-.3-1.8.8-4.2,2.5-7.7,5.3-14.3,7.9-20.4,8.2-2.8,0-7.6-.9-9.9-2.1-4.6-2.4-8.2-7.2-9.6-13-1.4-5.7-1.4-8.6-.1-15.3,1.1-6,2.5-10,4.3-12.4.9-1.2,3.2-2,4.8-1.6,3.2.7,4.5,5.2,2.2,7.7-.7.8-1,1.7-1.8,5.6-1.1,5.2-1.1,7.6-.1,12,1,4.5,3.2,7.1,6.5,7.9,6.6,1.4,14.6-3,27.9-15.6,3.4-3.2,7.5-8,10.4-12.2,2.3-3.3,4.1-4.3,7.2-3.6,2.1.5,3.4,1.4,4.2,3.2h0c1.1,2.2.9,4.5-.6,8.4-.7,1.8-1.8,4.7-2.3,6.3-.5,1.6-1.5,4.2-2.2,5.8-.7,1.6-2.5,6.4-4.2,10.7-1.7,4.3-3.7,9.3-4.5,11.2-2.3,5.3-10,20.2-14.9,28.6-2.4,4.2-5.9,10.4-7.7,13.7ZM130.8,132.3c-1.2,1.1-3.4,1.9-4.7,1.6-1.5-.3-2.8-1.7-2.9-3.2-.2-1.5.6-5.7,2-11l.9-3.3-3.6,3.4c-6,5.8-11.5,9.6-15.2,10.7-1.5.4-2.5.5-4.5.1-1.4-.2-2.9-.7-3.3-.9-2.5-1.5-3.5-3.3-3.7-6.5-.1-1.5.8-4.7,2.8-9.5,2.5-6.1,3.2-7.6,4.4-9.2,3-3.9,7.5-7.5,12.9-10.3,4.5-2.4,8.3-3.2,11.8-2.5.5.1,1,.2,1.5.4h0c1.3.4,2.6,1.1,3.8,2,1.5,1.1,2.2,1.4,4,1.5,1.8.2,2.3.4,3.4,1.3,1.5,1.4,2,3.9,1,5.7-.3.6-.9,2.4-1.3,4-.4,1.5-1.6,5.3-2.7,8.5-1.1,3.1-2.8,8-3.8,11-1.6,4.8-1.9,5.5-2.8,6.3ZM169.5,143c-4.4,6.4-9.9,12.1-14.6,15.1-4.3,2.7-10.7,3.9-15.5,2.8-1.3-.3-1.7-.6-2.6-2-.9-1.3-1-1.9-.8-3,.6-2.7,2.3-3.8,6-3.7,4.2,0,7.2-1.5,11-5.6,5.8-6.3,13.4-19.4,20.9-36.2,1.4-3.1,2.6-5.8,2.6-6,0-.2-.6,0-1.5.5-2.6,1.6-5.9,3.1-8.4,3.8-2.2.6-2.6.6-6.2-.2-3.5-.8-4-1-5.5-2.2-2.2-1.8-3.9-5-4.9-9l-.8-3.3.9-3.7c1.5-6.1,4.9-11.9,7.7-13,2.4-1,5.3.2,6.4,2.6.9,1.9-.3,5.3-2.4,6.7-1.1.7-1.3,1.1-2,3.7-.8,3.1-.7,4.1.6,6.5.9,1.7,2.2,2,4.5,1,2.5-1,7.5-4.4,10.5-7.1,7.4-6.6,8.1-7.1,10.3-7.9,1.5-.5,2.1-.6,3-.5.3,0,.7.2,1.1.3h0c2.3.7,3.9,2.3,4.5,4.7.5,1.8-.3,6-1.8,9.8-8,20.2-14.4,33-23.1,45.7ZM191.7,160.6c-.4,1.5-2.2,3.4-3.5,4-1.4.6-3.6,0-4.8-1.1-1.1-1-1.4-2.8-.8-4.7.4-1.3.7-1.7,2.1-2.6,1.1-.7,2.1-1,3-1.1.5,0,.9,0,1.3.2.4.1.8.3,1.2.7,1.3,1,2,3.1,1.6,4.6ZM224.4,71.8c-1.5,3.3-3.8,9.9-8.9,25.8-3.9,11.9-8.7,25.6-12.9,36.9-2.3,6.1-2.9,7-4.9,7.6-1.1.3-2.6,0-3.5-.6-1-.7-1.9-2.7-1.8-3.9.1-1.5,2-7.1,14.1-42.9,2.8-8.1,5.2-15,7.4-20.5.9-2.4,1.8-5,1.9-5.7.2-1.7,2.3-4.2,4-5,.9-.4,1.9-.4,2.8-.2.9.3,1.7.8,2.3,1.6h0c1.2,1.8,1.1,3.6-.3,6.9Z"/>
</svg>